<svg xmlns="http://www.w3.org/2000/svg" viewBox="0 0 1024 1024" fill="none">

        
        <path d="M0 0 C1.92223389 -0.00132935 1.92223389 -0.00132935 3.88330078 -0.00268555 C5.26857032 0.01387679 6.65382499 0.03172684 8.0390625 0.05078125 C9.45686839 0.0614551 10.87467438 0.07211583 12.29248047 0.08276367 C23.49861256 0.20321577 34.55097763 0.91890998 45.6640625 2.36328125 C46.52112793 2.47043457 47.37819336 2.57758789 48.26123047 2.68798828 C111.52557549 10.69952838 172.58125999 34.5490821 220.87695312 76.84716797 C222.24596662 78.00858516 223.6402531 79.14026971 225.04492188 80.25830078 C232.02589055 85.82369812 238.4019795 91.79071633 244.68066406 98.11914062 C246.28753557 99.73674412 247.90484744 101.34335038 249.5234375 102.94921875 C256.01508298 109.43213399 261.9729792 116.15486229 267.6640625 123.36328125 C268.71196636 124.64168693 269.76241942 125.91801105 270.81640625 127.19140625 C285.12714704 144.69342723 296.85482589 163.886146 306.64453125 184.25048828 C307.72091035 186.48108807 308.81712311 188.70132149 309.9140625 190.921875 C324.99934126 221.74304496 344.27730613 269.59033047 338.6640625 304.36328125 C336.6640625 306.36328125 336.6640625 306.36328125 333.6640625 306.61328125 C330.6640625 306.36328125 330.6640625 306.36328125 328.6640625 304.36328125 C328.04150391 301.79150391 328.04150391 301.79150391 327.515625 298.52734375 C327.31710937 297.32770996 327.11859375 296.12807617 326.9140625 294.89208984 C326.7078125 293.60383301 326.5015625 292.31557617 326.2890625 290.98828125 C325.84812993 288.32608545 325.40051306 285.66502377 324.953125 283.00390625 C324.84276917 282.34341278 324.73241333 281.68291931 324.61871338 281.00241089 C311.981923 205.59116164 274.02382812 132.69288338 212.6640625 85.36328125 C211.65988281 84.54214844 210.65570312 83.72101563 209.62109375 82.875 C173.78241535 53.67370912 132.10253598 34.34729442 87.6640625 22.36328125 C86.81376465 22.12625488 85.9634668 21.88922852 85.08740234 21.64501953 C68.54947722 17.07236646 51.67340504 15.24608216 34.6640625 13.36328125 C31.6940625 13.03328125 28.7240625 12.70328125 25.6640625 12.36328125 C18.0740625 12.03328125 10.4840625 11.70328125 2.6640625 11.36328125 C2.6640625 223.55328125 2.6640625 435.74328125 2.6640625 654.36328125 C23.22876444 653.73734022 23.22876444 653.73734022 43.6015625 651.80078125 C44.87402832 651.63006104 46.14649414 651.45934082 47.45751953 651.28344727 C80.97625996 646.57716441 115.31379588 637.5511775 145.6640625 622.36328125 C146.59025391 621.90759766 147.51644531 621.45191406 148.47070312 620.98242188 C169.65361277 610.50616522 189.44545496 598.4778423 207.93359375 583.73974609 C209.43674936 582.54409269 210.9553536 581.36791103 212.4765625 580.1953125 C229.71540858 566.79652989 246.44938833 550.73987237 259.6640625 533.36328125 C260.68643661 532.05645904 261.70996962 530.75054303 262.734375 529.4453125 C298.78366484 483.2525348 321.93194654 428.01367243 326.63964844 369.33496094 C326.73407227 368.2318457 326.82849609 367.12873047 326.92578125 365.9921875 C327.03345825 364.53921265 327.03345825 364.53921265 327.14331055 363.05688477 C327.75017482 359.91786295 328.74433471 357.91235308 330.6640625 355.36328125 C333.78402345 354.84328776 335.66288228 354.70509795 338.3515625 356.47265625 C344.35042108 365.11386921 336.96277585 388.2803705 335.23828125 398.09765625 C327.98527442 438.2372029 313.36681627 477.35144336 290.6640625 511.36328125 C290.21611328 512.04342285 289.76816406 512.72356445 289.30664062 513.42431641 C283.29978162 522.51341832 276.90739002 531.25641235 270.02050781 539.69824219 C268.74201111 541.26759919 267.47982299 542.85020178 266.21875 544.43359375 C259.22449462 553.02450942 251.40770145 560.83187576 243.6015625 568.67578125 C242.76961868 569.51562561 242.76961868 569.51562561 241.92086792 570.37243652 C234.84094304 577.50423616 227.60608522 584.17954173 219.6640625 590.36328125 C218.96595459 590.91008545 218.26784668 591.45688965 217.54858398 592.02026367 C175.07830182 624.90238708 128.06096979 646.68845334 75.6640625 658.36328125 C74.80103516 658.56050781 73.93800781 658.75773438 73.04882812 658.9609375 C52.95007369 663.51941789 32.6330683 665.60848885 12.040802 665.83605957 C10.46230789 665.85413865 8.88388103 665.87971654 7.30563354 665.91296387 C5.09099058 665.95438483 2.87903336 665.96117702 0.6640625 665.95703125 C-0.6146875 665.96412109 -1.8934375 665.97121094 -3.2109375 665.97851562 C-6.3359375 665.36328125 -6.3359375 665.36328125 -8.00765479 663.50404608 C-9.9760299 658.84976332 -9.74725914 654.50075934 -9.71346092 649.49580956 C-9.71782124 648.38167761 -9.72218157 647.26754567 -9.72667402 646.11965215 C-9.73768456 642.35962494 -9.72718097 638.59996027 -9.71688843 634.8399353 C-9.7186795 632.12775714 -9.72498219 629.41559366 -9.73107016 626.70342219 C-9.74191977 620.79291633 -9.74156765 614.88249263 -9.73392868 608.97198296 C-9.72260033 600.18309807 -9.72837244 591.39428273 -9.7375536 582.60539834 C-9.75336789 566.91078575 -9.75197496 551.21620974 -9.74331686 535.52159364 C-9.73577776 521.78843587 -9.73379657 508.05529153 -9.7373848 494.32213211 C-9.73761395 493.41208135 -9.73784311 492.50203059 -9.73807921 491.56440253 C-9.73901318 487.87046844 -9.73996838 484.17653436 -9.7409585 480.48260028 C-9.7501402 445.81491597 -9.74180737 411.14725499 -9.72566781 376.47957428 C-9.71142807 345.65824535 -9.71270634 314.8369536 -9.72705078 284.015625 C-9.74310282 249.40935973 -9.74949151 214.80311508 -9.74021399 180.1968466 C-9.73925179 176.51016403 -9.73831328 172.82348144 -9.7373848 169.13679886 C-9.73714756 168.22900376 -9.73691033 167.32120867 -9.73666591 166.38590463 C-9.73324882 152.65771958 -9.73725294 138.92954941 -9.74482346 125.20136642 C-9.75338476 109.59845057 -9.75197491 93.99557711 -9.73498122 78.39266656 C-9.72614705 69.65273836 -9.72563366 60.91290188 -9.73691975 52.17297598 C-9.74361944 46.34352609 -9.73951031 40.51415013 -9.72640544 34.68471124 C-9.7192321 31.35765447 -9.71853257 28.03093202 -9.72762339 24.70385687 C-9.73664821 21.12874834 -9.72748914 17.55415171 -9.71346092 13.97907066 C-9.72048442 12.93432599 -9.72750792 11.88958131 -9.73474425 10.8131777 C-9.7272337 9.86596185 -9.71972314 8.91874599 -9.71198499 7.94282663 C-9.71178171 7.12457911 -9.71157844 6.30633159 -9.711369 5.46328869 C-8.73145771 -0.01792694 -4.83533686 -0.01254083 0 0 Z " fill="#30C5C1" transform="translate(416.3359375,177.63671875)" />
        <path d="M0 0 C4.33532934 2.16766467 4.33532934 2.16766467 6 5 C8.57833538 14.70758804 3.75822604 23.05439092 -0.921875 31.23632812 C-2.76153234 34.24576757 -4.85651351 37.05003464 -7.1640625 39.71484375 C-8.73648233 44.01328113 -6.82924415 48.89600999 -5.1968689 53.03773499 C-4.2795453 55.01229669 -3.30875509 56.94705782 -2.3046875 58.87890625 C-1.95238068 59.57644516 -1.60007385 60.27398407 -1.23709106 60.99266052 C-0.12581612 63.18754951 0.99925641 65.37500296 2.125 67.5625 C2.88764884 69.06267857 3.64937598 70.56332609 4.41015625 72.06445312 C6.26284377 75.71513447 8.1279279 79.3592237 10 83 C13.9074151 83 15.42257753 81.63018781 18.6875 79.5 C37.06395234 67.87031975 57.84114452 59.04612333 79 54 C79.80663086 53.80390137 80.61326172 53.60780273 81.44433594 53.40576172 C118.43533786 44.84082507 158.09514739 50.82033385 195.25 55.5 C196.10603821 55.60777771 196.96207642 55.71555542 197.84405518 55.82659912 C200.39480916 56.14813592 202.94546865 56.47041131 205.49609375 56.79296875 C206.3189386 56.89685913 207.14178345 57.00074951 207.98956299 57.10778809 C211.62871082 57.56831022 215.26653464 58.03538011 218.90283203 58.51806641 C234.73610602 60.6036146 250.35974815 61.30204301 266.3125 61.375 C267.22488434 61.38294586 268.13726868 61.39089172 269.07730103 61.39907837 C287.47208531 61.52263922 309.40376964 60.64664599 324 48 C326.60939443 45.12053126 329.10806842 42.2237955 331.54296875 39.1953125 C334 37 334 37 337.1796875 36.609375 C340 37 340 37 341.9375 38.125 C343 40 343 40 343.125 42.625 C339.51121867 53.46634398 330.04060462 59.52064709 320.4375 64.625 C307.08978478 71.27263598 293.03550954 73.10451865 278.26171875 73.23828125 C277.35615234 73.2480751 276.45058594 73.25786896 275.51757812 73.26795959 C253.47253497 73.45641385 231.99472836 72.55089575 210.14501953 69.67236328 C203.11076282 68.74609764 196.06786078 67.88993081 189.02549744 67.02789307 C183.63509087 66.36804051 178.24555863 65.70301786 172.8581543 65.01904297 C116.08497694 57.85797398 65.13228649 63.6448302 16 95 C16.268125 96.134375 16.53625 97.26875 16.8125 98.4375 C21.47678102 119.7455464 23.94131944 139.64224852 13.0703125 159.76953125 C7.2885845 168.79120872 -0.62134019 175.87550265 -11 179 C-18.23908321 180.25093098 -25.76868856 180.40646507 -32.1875 176.4375 C-38.02030302 171.69556472 -41.67286573 166.48021137 -43 159 C-44.58438187 143.62721376 -39.19960491 131.04146307 -30 119 C-29.22462891 117.98486328 -29.22462891 117.98486328 -28.43359375 116.94921875 C-23.92972273 111.41448897 -18.42954837 107.01733708 -12.9609375 102.4765625 C-12.43064941 102.03610596 -11.90036133 101.59564941 -11.35400391 101.1418457 C-9.81719906 99.86819237 -8.27588633 98.59998422 -6.734375 97.33203125 C-4.36441906 95.3107974 -2.18499696 93.21503629 0 91 C-1.91556774 86.99947284 -3.83265314 82.99967474 -5.75 79 C-6.28882813 77.87464844 -6.82765625 76.74929688 -7.3828125 75.58984375 C-7.91132812 74.48769531 -8.43984375 73.38554688 -8.984375 72.25 C-9.49935547 71.17492187 -10.01433594 70.09984375 -10.54492188 68.9921875 C-11.79012703 66.43157771 -13.07868178 63.90170546 -14.390625 61.375 C-16 58 -16 58 -16 55 C-19.78086704 58.67775249 -23.22850839 62.5302534 -26.625 66.5625 C-52.53546023 96.99573257 -52.53546023 96.99573257 -64.6875 98.4375 C-69.23996334 97.83623126 -71.72921144 96.57467278 -74.6171875 92.99609375 C-76.58903864 88.72374962 -76.44590662 84.90130653 -76.375 80.25 C-76.36847412 79.32203613 -76.36194824 78.39407227 -76.35522461 77.43798828 C-76.21390772 70.03501116 -75.21025028 63.01624422 -73.734375 55.77734375 C-72.78037266 50.87032105 -72.31218027 45.98411948 -72 41 C-87.22164748 51.20306616 -97.27340154 67.72092792 -107.29638672 82.72119141 C-109.59619098 86.12705479 -111.7943857 89.37126517 -115 92 C-118.625 92.375 -118.625 92.375 -122 92 C-124 90 -124 90 -124.29296875 86.13671875 C-124.15386533 80.17667233 -122.73704471 74.57660605 -121.3125 68.8125 C-120.76397787 66.51570738 -120.21580729 64.21883077 -119.66796875 61.921875 C-119.39001465 60.77138672 -119.11206055 59.62089844 -118.82568359 58.43554688 C-117.55603535 53.15272899 -116.33624269 47.85896226 -115.125 42.5625 C-114.80269409 41.17865112 -114.80269409 41.17865112 -114.47387695 39.7668457 C-114.27882568 38.91695068 -114.08377441 38.06705566 -113.8828125 37.19140625 C-113.71152832 36.45092041 -113.54024414 35.71043457 -113.36376953 34.94750977 C-112.90819429 32.83869925 -112.90819429 32.83869925 -113 30 C-126.85101115 41.89804862 -137.40974378 55.24370259 -148 70 C-149.18947587 71.6475892 -150.37957332 73.29472983 -151.5703125 74.94140625 C-153.23690066 77.24630186 -154.9025188 79.55180641 -156.56201172 81.86181641 C-157.54654471 83.23144821 -158.53447439 84.59864606 -159.52612305 85.96313477 C-160.55492141 87.38491127 -161.57106392 88.81589399 -162.57739258 90.25366211 C-163.09454834 90.97690674 -163.6117041 91.70015137 -164.14453125 92.4453125 C-164.83446167 93.42588623 -164.83446167 93.42588623 -165.53833008 94.42626953 C-167 96 -167 96 -170.6875 97.1875 C-174 97 -174 97 -175.71647644 95.74299622 C-177.77475681 92.94789762 -176.97901652 90.79489016 -176.48696899 87.50424194 C-175.6770836 83.33939982 -174.59134944 79.28264096 -173.41796875 75.20703125 C-173.16251785 74.29853928 -172.90706696 73.3900473 -172.64387512 72.45402527 C-171.83170274 69.57159744 -171.00978164 66.6920582 -170.1875 63.8125 C-169.64714106 61.90057291 -169.10742237 59.98846475 -168.56835938 58.07617188 C-167.05484909 52.71478937 -165.5294487 47.35685456 -164 42 C-163.78216858 41.23637146 -163.56433716 40.47274292 -163.33990479 39.68597412 C-162.22853505 35.7900953 -161.11543876 31.89471619 -160 28 C-168.37499281 34.99777741 -175.16898879 42.50939736 -181.25 51.5625 C-181.66233887 52.17544922 -182.07467773 52.78839844 -182.49951172 53.41992188 C-185.03314697 57.28050362 -187.10442333 61.16026707 -188.93798828 65.40161133 C-190 67 -190 67 -193.625 68.125 C-197 68 -197 68 -199 66 C-199.85124871 59.55833907 -197.64957012 55.55735213 -194.5 50.1875 C-194.04222168 49.39069824 -193.58444336 48.59389648 -193.11279297 47.77294922 C-185.854326 35.37717648 -173.76723109 18.85107322 -160 13 C-155.8983325 12.8655191 -154.02512908 13.17855881 -150.83007812 15.73876953 C-147.42584125 19.94501845 -148.46868514 24.85288727 -149 30 C-149.93709906 35.10637264 -151.18389725 40.10449994 -152.5 45.125 C-153.16046783 47.70987984 -153.81414082 50.29643829 -154.46875 52.8828125 C-154.76201172 54.01090332 -155.05527344 55.13899414 -155.35742188 56.30126953 C-156.07720949 58.86190543 -156.07720949 58.86190543 -156 61 C-155.63350342 60.48727539 -155.26700684 59.97455078 -154.8894043 59.44628906 C-147.43808009 49.06487777 -139.92746699 39.15564506 -131 30 C-130.31679688 29.25492187 -129.63359375 28.50984375 -128.9296875 27.7421875 C-123.64924182 22.11968866 -116.79592766 15.45110211 -108.84375 14.703125 C-106 15 -106 15 -103.125 16.75 C-99.01938848 23.02917055 -100.62408016 30.82058866 -102.07962036 37.90362549 C-102.84203759 41.36348197 -103.6650774 44.80704498 -104.5 48.25 C-104.8384554 49.68851657 -105.17570288 51.12731789 -105.51171875 52.56640625 C-106.32728308 56.04765578 -107.15899814 59.52479625 -108 63 C-106.37843571 61.37843571 -105.2139291 59.42459941 -103.91601562 57.54321289 C-95.81718189 45.90190517 -86.9725962 34.4862981 -74 28 C-69.62063431 27.48428319 -66.14953485 27.16658723 -62.5 29.8125 C-57.76379554 36.71946483 -60.14253413 46.29073876 -61.3125 54.06640625 C-61.44567627 54.98590561 -61.57885254 55.90540497 -61.71606445 56.85276794 C-62.13807538 59.75692066 -62.56888196 62.65968676 -63 65.5625 C-63.28964759 67.54483647 -63.57871567 69.52725771 -63.8671875 71.50976562 C-64.57143204 76.34084915 -65.28356169 81.17071037 -66 86 C-64.72888435 85.38799886 -63.46043865 84.77045065 -62.19311523 84.15063477 C-61.48646225 83.80734634 -60.77980927 83.46405792 -60.05174255 83.11036682 C-51.68651698 78.58325453 -44.8711157 69.97656219 -39.0859375 62.625 C-37.09616722 60.12101942 -35.02220393 57.74432847 -32.875 55.375 C-32.23304688 54.63507813 -31.59109375 53.89515625 -30.9296875 53.1328125 C-29 51 -29 51 -26.9453125 49.1796875 C-23.16292883 45.42768442 -21.83216929 42.44027512 -21.70703125 37.1484375 C-21.7302672 34.3676188 -21.81360604 31.59402545 -21.9128418 28.81494141 C-22.23711477 18.57445538 -19.68947509 10.8315806 -13 3 C-9.07120061 -0.29169679 -4.98853386 -0.97242376 0 0 Z " fill="#30C5C2" transform="translate(636,452)" />
        <path d="M0 0 C4.88683155 4.88683155 6.72862483 9.31171174 6.9375 16.25 C5.85865612 43.22109702 -12.33106016 67.08754721 -30.06396484 85.93725586 C-31.70842367 87.72681399 -33.29931959 89.55757168 -34.890625 91.39453125 C-37.76627332 94.69984721 -40.74526796 97.87656416 -43.78857422 101.02709961 C-72.02124536 130.39703469 -84.71800365 160.72783546 -84.75 201.4375 C-84.75067474 202.21112885 -84.75134949 202.98475769 -84.75204468 203.78182983 C-84.72359181 224.3585738 -83.95288095 247.28893353 -69.5 263.5 C-61.63906846 270.6871374 -54.32086032 272.22415126 -43.87890625 271.9453125 C-37.5713439 271.51068524 -32.68869541 268.99409815 -27.5 265.5 C-26.82582031 265.05527344 -26.15164063 264.61054687 -25.45703125 264.15234375 C-13.68721401 255.24053952 -8.50150584 238.6854866 -6.0078125 224.76953125 C-1.73612941 193.10926523 -12.4300216 161.71832776 -31.203125 136.390625 C-33.3798087 133.51544395 -33.3798087 133.51544395 -35.76953125 131.3359375 C-37.5 129.5 -37.5 129.5 -37.9375 125.875 C-37.7209375 124.204375 -37.7209375 124.204375 -37.5 122.5 C-34.5 120.5 -34.5 120.5 -32.125 120.5625 C-28.5655456 121.83373372 -27.0224307 123.67727993 -24.5 126.5 C-23.98695313 127.02207031 -23.47390625 127.54414062 -22.9453125 128.08203125 C-3.03329105 149.14105855 6.91288756 181.6756955 6.875 210.0625 C6.87478851 210.72030457 6.87457703 211.37810913 6.87435913 212.05584717 C6.81086804 231.89455553 2.85556719 249.55109113 -9.5 265.5 C-10.43585938 266.75296875 -10.43585938 266.75296875 -11.390625 268.03125 C-19.50973781 277.53361906 -32.05747115 283.67016391 -44.43359375 284.7578125 C-56.13163898 285.17911065 -67.58895349 282.3954493 -76.5 274.5 C-88.08350356 262.57356377 -91.67831182 249.19331528 -95.5 233.5 C-96.06847656 234.39589844 -96.63695312 235.29179688 -97.22265625 236.21484375 C-103.52661223 245.30854354 -111.73548168 250.94404131 -122.5 253.5 C-138.31534603 255.48578336 -150.64114706 249.81899601 -163.0625 240.59765625 C-172.70823604 232.29675841 -179.56038379 218.75799552 -180.72119141 206.08520508 C-181.20524858 195.37724237 -181.20787193 185.34106562 -176.5 175.5 C-176.07589844 174.58347656 -175.65179688 173.66695312 -175.21484375 172.72265625 C-167.37623077 157.15460318 -154.78980316 147.32580399 -140.875 137.5 C-108.93913153 114.53274838 -87.25140218 75.51360381 -80.921875 36.98046875 C-80.6211344 34.97472299 -80.34002296 32.96580265 -80.08984375 30.953125 C-79.41033652 28.12709494 -78.51129423 26.58828157 -76.5 24.5 C-73.4375 24.125 -73.4375 24.125 -70.5 24.5 C-68.5 26.5 -68.5 26.5 -68.21679688 28.68188477 C-68.22201984 35.89415335 -69.25387832 42.45081065 -71 49.4375 C-71.26772217 50.52289062 -71.53544434 51.60828125 -71.8112793 52.7265625 C-79.56231993 82.87367066 -95.49707482 109.72217974 -116.5 132.5 C-117.16 133.2425 -117.82 133.985 -118.5 134.75 C-123.41268342 140.01358938 -129.19730357 144.17723216 -134.92407227 148.5012207 C-149.26581113 158.97301292 -149.26581113 158.97301292 -160.5 172.5 C-160.95890625 173.21800781 -161.4178125 173.93601562 -161.890625 174.67578125 C-168.40704772 185.51776044 -169.28774688 198.62221154 -166.8125 210.9140625 C-163.433115 221.81257914 -158.3205084 230.42679086 -148.5 236.5 C-140.09938818 240.91570622 -132.13398315 243.02738031 -122.68359375 240.8515625 C-113.3942463 237.82832564 -107.69517687 233.28080488 -103.125 224.625 C-98.76097968 215.67753934 -98.24143448 207.00052884 -98.0625 197.1875 C-96.80992472 156.57031561 -82.33790947 124.81992767 -54.5 95.5 C-52.65808646 93.50781991 -50.82879708 91.50421893 -49 89.5 C-46.25538145 86.49526736 -43.50422806 83.49844964 -40.71484375 80.53515625 C-27.80010565 66.75928453 -16.82861468 52.04425939 -9.5 34.5 C-9.1803125 33.8503125 -8.860625 33.200625 -8.53125 32.53125 C-5.62934016 26.19003961 -6.03297426 19.34372332 -6.5 12.5 C-6.83 11.84 -7.16 11.18 -7.5 10.5 C-10.9957925 10.21079801 -12.97238713 10.1860418 -16.02734375 12.00390625 C-18.53862987 14.14887835 -21.04232955 16.29359299 -23.5 18.5 C-24.12132812 19.03882813 -24.74265625 19.57765625 -25.3828125 20.1328125 C-33.72312232 27.8524481 -39.5827531 38.30727798 -45.08984375 48.13671875 C-46.5 50.5 -46.5 50.5 -48.5 52.5 C-51.5 52.3125 -51.5 52.3125 -54.5 51.5 C-56.5 48.5 -56.5 48.5 -56.3984375 45.81640625 C-55.2501492 41.57772464 -53.37577211 38.18623351 -51.125 34.4375 C-50.68019287 33.69234131 -50.23538574 32.94718262 -49.77709961 32.17944336 C-39.95813918 16.16083898 -21.47258559 -9.20253668 0 0 Z " fill="#30C6C3" transform="translate(384.5,539.5)" />
        <path d="M0 0 C1.1036792 0.00684814 2.2073584 0.01369629 3.34448242 0.02075195 C12.09724948 0.19202266 19.62677143 1.36699155 27.875 4.4375 C29.43347656 4.99824219 29.43347656 4.99824219 31.0234375 5.5703125 C42.53234672 10.03778112 52.53736186 16.41882199 61.875 24.4375 C62.70902344 25.13746094 63.54304688 25.83742188 64.40234375 26.55859375 C70.66331192 31.97061708 75.83113912 37.89121248 80.875 44.4375 C81.58140625 45.33984375 82.2878125 46.2421875 83.015625 47.171875 C88.11837942 53.81646889 92.74290174 60.71200386 97.34716797 67.70629883 C101.87852225 74.54387929 106.72772826 81.05024425 111.875 87.4375 C112.69742188 88.46359375 113.51984375 89.4896875 114.3671875 90.546875 C126.92597462 105.02273554 144.29191926 110.78902974 162.20703125 115.640625 C164.875 116.4375 164.875 116.4375 165.875 117.4375 C166.34103378 122.79688848 166.34103378 122.79688848 164.64453125 125.12890625 C161.62331588 127.36313836 158.96254108 126.57942069 155.37109375 126.140625 C139.12326439 122.87290513 125.51399077 116.09221236 112.875 105.4375 C112.02164063 104.76976562 111.16828125 104.10203125 110.2890625 103.4140625 C98.43183815 93.70572024 90.1388865 79.02579586 81.89868164 66.33007812 C77.30088573 59.31977011 72.29334607 52.8310477 66.875 46.4375 C66.13193604 45.54828857 65.38887207 44.65907715 64.62329102 43.74291992 C51.13513449 27.75982522 29.77095232 14.20148971 8.53173828 12.21875 C-5.8777486 11.49392588 -5.8777486 11.49392588 -19.125 16.4375 C-19.8365625 16.87320312 -20.548125 17.30890625 -21.28125 17.7578125 C-29.95642505 23.68153278 -36.13226974 33.07530263 -38.125 43.4375 C-39.23910726 59.67775584 -36.03651104 75.21962974 -25.9140625 88.29296875 C-23.72548678 90.76165228 -21.45944401 93.1072622 -19.125 95.4375 C-18.58488281 96.04851562 -18.04476562 96.65953125 -17.48828125 97.2890625 C11.74390125 129.54018576 76.3009144 142.71108858 117.2890625 144.75390625 C151.99797403 145.83298756 184.80144904 133.14924379 210.875 110.4375 C211.68324219 109.74011719 212.49148438 109.04273438 213.32421875 108.32421875 C217.09983717 104.99851299 220.73814995 101.6161541 224.1796875 97.9453125 C225.03651123 97.04474121 225.03651123 97.04474121 225.91064453 96.12597656 C227.03445834 94.93718576 228.14296806 93.73369624 229.23388672 92.51464844 C230.796875 90.8671875 230.796875 90.8671875 233.875 88.4375 C238.98291367 88.54541367 238.98291367 88.54541367 240.875 90.4375 C241.44168362 94.94319033 241.28104304 96.87029555 238.6015625 100.61328125 C237.58582981 101.67646715 236.55077328 102.72143174 235.5 103.75 C234.9527124 104.31050049 234.4054248 104.87100098 233.84155273 105.44848633 C232.72486048 106.58787887 231.6007634 107.72006313 230.46923828 108.84472656 C229.05766252 110.25500532 227.68036556 111.69941217 226.30859375 113.1484375 C201.73012655 138.82018084 165.50031501 155.72616367 129.9609375 156.67578125 C113.52814017 156.91332023 97.97597762 156.01492062 81.875 152.4375 C80.80813965 152.20675781 79.7412793 151.97601562 78.64208984 151.73828125 C45.83571525 144.50643428 9.95021753 133.94977703 -17.125 113.4375 C-18.176875 112.66019531 -19.22875 111.88289063 -20.3125 111.08203125 C-35.42985455 99.26195684 -47.7167936 81.8767156 -50.125 62.4375 C-50.36044533 58.89501975 -50.45808867 55.36223448 -50.5 51.8125 C-50.51409912 50.94157715 -50.52819824 50.0706543 -50.54272461 49.17333984 C-50.43712862 35.00743762 -43.95269722 22.70103708 -34.35546875 12.47265625 C-24.11205472 3.12621368 -13.60785428 -0.12953939 0 0 Z " fill="#30C6C3" transform="translate(143.125,396.5625)" />
        <path d="M0 0 C31.8365735 25.95372839 47.54806951 62.30395207 52.67480469 102.39916992 C55.49821717 124.2801192 60.76388184 144.0285508 78.81542969 158.47729492 C83.07575887 161.50686234 87.74505601 163.70839744 92.46386719 165.93041992 C95.00292969 167.22729492 95.00292969 167.22729492 97.00292969 169.22729492 C96.81542969 172.22729492 96.81542969 172.22729492 96.00292969 175.22729492 C93.00292969 177.22729492 93.00292969 177.22729492 89.70214844 177.03198242 C75.19468217 173.87618722 62.95244056 162.1424834 54.81152344 150.22729492 C45.70824329 135.12725355 42.23853623 119.83432806 40.06542969 102.47729492 C36.37880015 73.06797406 27.21209631 45.54835195 7.00292969 23.22729492 C6.56110352 22.73632324 6.11927734 22.24535156 5.6640625 21.73950195 C-5.99728247 8.94610575 -19.86849942 -1.44572627 -37.74267578 -2.28979492 C-45.85704055 -2.44465557 -52.27601333 -1.71062449 -58.99707031 3.22729492 C-59.7228125 3.75838867 -60.44855469 4.28948242 -61.19628906 4.83666992 C-67.41810742 9.85092649 -72.32067717 16.30252736 -73.99707031 24.22729492 C-74.90108813 33.92114757 -73.17650506 40.25942813 -67.99707031 48.35229492 C-61.87275959 55.16131119 -51.97837456 59.73600135 -43.00097656 60.47338867 C-34.50045876 60.79768588 -28.06616848 59.68602837 -21.49707031 54.10229492 C-17.96650663 49.68909032 -18.40886816 44.66228282 -18.99707031 39.22729492 C-20.79825509 36.22532029 -21.90039763 34.77563126 -24.99707031 33.22729492 C-29.90198634 32.98996028 -32.66074455 32.9891913 -36.99707031 35.22729492 C-40.62207031 35.53979492 -40.62207031 35.53979492 -43.99707031 35.22729492 C-45.99707031 32.22729492 -45.99707031 32.22729492 -46.12207031 29.35229492 C-44.70979339 25.42930346 -43.23451947 24.145645 -39.64160156 22.14526367 C-32.97350796 19.83063738 -24.90872381 19.94076859 -18.43457031 22.85229492 C-12.83113948 26.25266748 -9.55223135 31.25809518 -6.99707031 37.22729492 C-5.91769338 45.32262189 -6.1813028 53.00139933 -10.37988281 60.14135742 C-15.68536917 66.98466591 -23.54186363 70.88295244 -31.99707031 72.22729492 C-42.06471909 72.85523621 -50.76748477 72.77477305 -59.99707031 68.22729492 C-60.76148438 67.87666992 -61.52589844 67.52604492 -62.31347656 67.16479492 C-73.35332184 61.63527242 -80.50347454 53.68513507 -84.99707031 42.22729492 C-88.23510651 32.23335605 -86.19838284 20.58315896 -81.99707031 11.22729492 C-79.63250062 7.27266752 -76.97017944 3.74199508 -73.99707031 0.22729492 C-73.45179688 -0.44172852 -72.90652344 -1.11075195 -72.34472656 -1.80004883 C-52.89760046 -23.52947824 -20.2037923 -15.85225305 0 0 Z " fill="#30C6C3" transform="translate(224.9970703125,319.772705078125)" />
        <path d="M0 0 C13.7937397 12.06952224 27.58747941 24.13904447 41.38115797 36.20856671 C41.38115599 36.20856976 41.38115401 36.2085728 41.3811566 36.20857796 C42.92349079 37.55812037 44.46582498 38.90766277 46.00815917 40.25720518 C46.75899933 40.91419001 47.50983949 41.57117483 48.2577977 42.23126786 C48.54920264 42.48842773 48.84060759 42.7455876 49.13201254 43.00274747 C69.04344463 60.5746687 88.95487672 78.14658994 108.86630881 95.71851118 C108.9775392 95.81667232 109.0887696 95.91483346 109.20000001 96.01300267 C110.15830026 96.85891392 111.11660052 97.70482518 112.07490077 98.55073643 C113.7336943 100.01487332 115.39248782 101.47901021 117.05128135 102.94314711 C117.20096237 103.07526367 117.3506434 103.20738023 117.50032442 103.33949679 C122.99920792 108.19307773 128.49809141 113.04665867 133.99697491 117.90023961 C134.16398322 118.04764893 134.33099153 118.19505824 134.4979844 118.34248293 C135.3323267 119.07891292 136.166669 119.81534291 137.0010113 120.5517729 C140.73033235 123.84347712 144.4596534 127.13518134 148.18897446 130.42688556 C148.45922372 130.66542603 148.72947299 130.90396649 148.99971363 131.14251579 C176.666472 155.56839352 204.33323038 179.99427125 232 204.42014898 C227.12656972 207.27237093 222.25313944 210.12459287 217.37973718 212.97677983 C217.08647573 213.14840454 216.79321429 213.32007421 216.5 213.49165393 C212.75625 215.6821875 212.75625 215.6821875 208.5703125 212.0078125 C185.06409618 191.3776363 161.55837672 170.74697722 138.0526786 150.11678225 C137.37511874 149.52211995 136.69755888 149.92745765 136.01999901 149.33279536 C135.00421776 148.44129592 133.98843651 147.54979648 132.97265526 146.65829704 C116.38332151 132.09710352 99.79398777 117.53591001 83.20465403 102.97471649 C82.86143527 102.67349609 82.51821652 102.37227568 82.175 102.07106024 C62.3377708 84.66094269 42.5005416 67.25082514 22.6633124 49.84070759 C22.27708789 49.50174072 21.89086338 49.16277385 21.50462973 48.82381283 C14.33642391 35.85873761 7.16821809 22.89366239 0 9.92858717 Z " fill="#30C6C3" transform="translate(306,624.5)" />
        
        <path d="M0 0 C0.99042969 0.28830078 1.98085938 0.57660156 2.97363281 0.85253906 C6.79040158 1.91357608 10.87106093 1.95663738 14.734375 0.9765625 C15.460625 0.79234375 16.186875 0.608125 16.9140625 0.42089844 C17.8937996 0.16867373 18.87353669 -0.08355098 19.85400391 -0.33447266 C23.63941406 -1.30335017 27.27960351 -2.70997576 30.77832031 -4.54296875 C31.64412598 -4.99616211 32.50993164 -5.44935547 33.37011719 -5.90820312 C52.28584803 -16.03578772 65.22891961 -32.86438096 70.875 -53.46875 C70.92388672 -53.6496875 70.97277344 -53.830625 71.02111816 -54.01171875 C71.30948957 -54.91238618 71.59786097 -55.81305361 71.87988281 -56.71533203 C73.53589886 -62.01257454 74.34914144 -67.57022216 74.296875 -73.125 C74.24050781 -73.69375 74.18414062 -74.2625 74.12011719 -74.83203125 C72.8229987 -86.53818302 68.61908204 -97.58986884 61.984375 -107.015625 C58.26190984 -112.30452378 -59.56382061 -116.11585695 -60.890625 -109.921875 C-61.95679549 -104.94539665 -53.76451613 -92.9360879 -47.015625 -82.015625 C-46.10851563 -80.54714844 -45.20140625 -79.07867188 -44.29199219 -77.61206055 C-36.93874039 -65.75620986 -31.39626388 -52.79375107 -27.97070312 -39.30078125 C-27.420625 -37.13289062 -26.87054687 -34.965 -26.3125 -32.80078125 C-19.49752945 -6.34585141 -15.82065842 16.27961198 -16.484375 43.59375 C-16.5912444 47.99435882 -17.02700085 52.38556731 -17.78955078 56.75585938 C-18.06208984 58.31882813 -18.33462891 59.88179687 -18.61499023 61.44262695 C-19.14150645 64.39128035 -19.68000788 67.33923363 -20.23120117 70.28588867 C-21.73634025 78.33642345 -22.15847425 86.63469851 -21.4921875 94.8125 C-19.7891398 115.71963842 -10.98592534 135.03463372 4.109375 149.953125 C47.77123047 149.953125 47.77123047 149.953125 50.8125 151.78125 C54.34771761 153.90562547 58.05342894 155.77661556 61.890625 157.3828125 C68.21666838 160.03154881 74.79301037 161.94042898 81.53125 163.078125 C101.44754877 166.44149861 121.78822998 162.90999026 139.75 152.96875 C107.03714241 120.30604113 78.50854407 84.44477169 57.171875 46.515625 C56.63660156 45.56453125 56.10132812 44.6134375 55.56811523 43.66064453 C43.27581788 21.68819195 31.90793665 -1.21855909 23.40039062 -22.3125 C23.08058594 -23.10925781 22.76078125 -23.90601562 22.43676758 -24.70422363 C20.93883049 -28.39704791 19.54477815 -32.12879948 18.26171875 -35.8984375 C18.15654297 -36.20697266 18.05136719 -36.51550781 17.94580078 -36.82421875 C16.63484213 -40.66981881 15.42629631 -44.54924843 14.33105469 -48.45507812 C13.79199219 -50.3703125 13.79199219 -50.3703125 13.203125 -52.2890625 C9.86650422 -63.29292852 7.72898144 -74.63937175 6.9609375 -86.1015625 C6.03541173 -99.9140409 6.84074218 -113.8058253 9.4296875 -127.3515625 C10.92383827 -135.20239088 12.87902534 -142.94695581 15.2578125 -150.5546875 C15.44021798 -151.13945952 15.62262347 -151.72423153 15.80548096 -152.30877686 C16.51731114 -154.58023194 17.24274092 -156.84594635 17.98187256 -159.10546875 C24.22557342 -178.20461875 32.74825979 -196.48705629 43.140625 -213.625 C45.38549649 -217.32757523 47.7490072 -220.94165979 50.22265625 -224.46484375 C51.04230469 -225.63003906 51.86195312 -226.79523438 52.68652344 -227.95703125 C61.16661129 -239.90799632 70.81223595 -250.93291583 81.421875 -260.8984375 C82.88769531 -262.27703125 82.88769531 -262.27703125 84.40234375 -263.6015625 C101.41160686 -278.47196011 121.24647986 -289.84364444 142.875 -296.8671875 C142.875 -297.87105469 142.875 -297.87105469 143.0859375 -298.81640625 C146.58622114 -314.54922127 160.77708514 -325.84524272 176.8828125 -326.890625 C192.98853986 -327.93600728 207.96205844 -318.52906804 214.0703125 -303.53125 C215.93881472 -298.94038474 216.71261314 -294.01529683 216.3203125 -289.0703125 C216.31959717 -289.06584229 216.31888184 -289.06137207 216.31817627 -289.05691528 C213.91100366 -273.74312015 200.74955734 -262.23598506 185.25 -262.234375 C168.61864197 -262.23261623 154.91238466 -275.05948958 153.84753418 -291.67050171 C133.02325375 -284.17700282 113.92671049 -272.93047249 97.5625 -258.1953125 C96.38027344 -257.12902344 95.19804688 -256.06273438 94.02050781 -254.99121094 C84.34960566 -246.18341695 75.52627914 -236.23098553 67.75 -225.2734375 C66.82882813 -223.97441406 65.90765625 -222.67539062 64.98144531 -221.38085938 C62.14668273 -217.41703632 59.40050867 -213.38072088 56.765625 -209.2578125 C47.01955112 -193.99222624 38.86872583 -176.99368547 32.7421875 -158.9140625 C31.8590625 -156.30507813 30.9759375 -153.69609375 30.09765625 -151.08203125 C25.89279116 -138.56303273 22.56947097 -125.7197022 20.21875 -112.7265625 C19.00696773 -106.01429871 18.06734106 -99.25141203 17.4375 -92.4609375 C17.375 -91.785 -17.375 -91.785 17.2734375 -91.109375 C16.94553255 -87.89667789 16.79069152 -84.66453916 16.8125 -81.4375 C16.96918517 -58.82516487 23.98592398 -37.49841804 36.8828125 -18.7890625 C37.89539062 -17.31914062 38.90796875 -15.84921875 39.92578125 -14.38476562 C48.0932227 -2.63750519 57.69747355 7.82855217 68.421875 16.9375 C69.05261719 17.47253906 69.68335938 18.00757813 70.31835938 18.53808594 C89.50853765 34.56965158 111.41372337 53.63385759 135.53125 76.5 C136.21617188 77.14851562 136.90113281 77.79703125 137.59082031 78.43945312 C186.20573966 123.70428589 253.95350485 106.45262106 253.953125 39.421875 C253.953125 39.421875 253.953125 39.421875 253.9213562 37.99468994 C253.4939226 18.78505537 237.98971032 3.16781442 218.78125 2.65625 C199.57278968 2.14468558 182.93189871 16.90380802 181.109375 35.96875 C180.25 44.9609375 180.25 44.9609375 178.6796875 53.8046875 C176.98616997 63.34217316 172.93416972 72.41733678 166.8671875 80.25 C165.75089844 81.69179688 164.63460937 83.13359375 163.5078125 84.56640625 C162.79375 85.47460938 162.0796875 86.3828125 161.35351562 87.29980469 C138.99547072 115.53951759 105.74836691 144.15242784 66.8125 146.96875 C64.91898438 147.10640625 63.02546875 147.2440625 61.125 147.3359375 C56.63469449 147.55160842 52.13881387 147.30098906 47.6796875 146.59375 C23.97230231 142.82585252 2.76813264 125.61781404 0 0 Z " fill="#30C6C3" transform="translate(276,581.125)" />
        <path d="M0 0 C4.88683155 4.88683155 6.72862483 9.31171174 6.9375 16.25 C5.85865612 43.22109702 -12.33106016 67.08754721 -30.06396484 85.93725586 C-31.70842367 87.72681399 -33.29931959 89.55757168 -34.890625 91.39453125 C-37.76627332 94.69984721 -40.74526796 97.87656416 -43.78857422 101.02709961 C-72.02124536 130.39703469 -84.71800365 160.72783546 -84.75 201.4375 C-84.75067474 202.21112885 -84.75134949 202.98475769 -84.75204468 203.78182983 C-84.72359181 224.3585738 -83.95288095 247.28893353 -69.5 263.5 C-61.63906846 270.6871374 -54.32086032 272.22415126 -43.87890625 271.9453125 C-37.5713439 271.51068524 -32.68869541 268.99409815 -27.5 265.5 C-26.82582031 265.05527344 -26.15164063 264.61054687 -25.45703125 264.15234375 C-13.68721401 255.24053952 -8.50150584 238.6854866 -6.0078125 224.76953125 C-1.73612941 193.10926523 -12.4300216 161.71832776 -31.203125 136.390625 C-33.3798087 133.51544395 -33.3798087 133.51544395 -35.76953125 131.3359375 C-37.5 129.5 -37.5 129.5 -37.9375 125.875 C-37.7209375 124.204375 -37.7209375 124.204375 -37.5 122.5 C-34.5 120.5 -34.5 120.5 -32.125 120.5625 C-28.5655456 121.83373372 -27.0224307 123.67727993 -24.5 126.5 C-23.98695313 127.02207031 -23.47390625 127.54414062 -22.9453125 128.08203125 C-3.03329105 149.14105855 6.91288756 181.6756955 6.875 210.0625 C6.87478851 210.72030457 6.87457703 211.37810913 6.87435913 212.05584717 C6.81086804 231.89455553 2.85556719 249.55109113 -9.5 265.5 C-10.43585938 266.75296875 -10.43585938 266.75296875 -11.390625 268.03125 C-19.50973781 277.53361906 -32.05747115 283.67016391 -44.43359375 284.7578125 C-56.13163898 285.17911065 -67.58895349 282.3954493 -76.5 274.5 C-88.08350356 262.57356377 -91.67831182 249.19331528 -95.5 233.5 C-96.06847656 234.39589844 -96.63695312 235.29179688 -97.22265625 236.21484375 C-103.52661223 245.30854354 -111.73548168 250.94404131 -122.5 253.5 C-138.31534603 255.48578336 -150.64114706 249.81899601 -163.0625 240.59765625 C-172.70823604 232.29675841 -179.56038379 218.75799552 -180.72119141 206.08520508 C-181.20524858 195.37724237 -181.20787193 185.34106562 -176.5 175.5 C-176.07589844 174.58347656 -175.65179688 173.66695312 -175.21484375 172.72265625 C-167.37623077 157.15460318 -154.78980316 147.32580399 -140.875 137.5 C-108.93913153 114.53274838 -87.25140218 75.51360381 -80.921875 36.98046875 C-80.6211344 34.97472299 -80.34002296 32.96580265 -80.08984375 30.953125 C-79.41033652 28.12709494 -78.51129423 26.58828157 -76.5 24.5 C-73.4375 24.125 -73.4375 24.125 -70.5 24.5 C-68.5 26.5 -68.5 26.5 -68.21679688 28.68188477 C-68.22201984 35.89415335 -69.25387832 42.45081065 -71 49.4375 C-71.26772217 50.52289062 -71.53544434 51.60828125 -71.8112793 52.7265625 C-79.56231993 82.87367066 -95.49707482 109.72217974 -116.5 132.5 C-117.16 133.2425 -117.82 133.985 -118.5 134.75 C-123.41268342 140.01358938 -129.19730357 144.17723216 -134.92407227 148.5012207 C-149.26581113 158.97301292 -149.26581113 158.97301292 -160.5 172.5 C-160.95890625 173.21800781 -161.4178125 173.93601562 -161.890625 174.67578125 C-168.40704772 185.51776044 -169.28774688 198.62221154 -166.8125 210.9140625 C-163.433115 221.81257914 -158.3205084 230.42679086 -148.5 236.5 C-140.09938818 240.91570622 -132.13398315 243.02738031 -122.68359375 240.8515625 C-113.3942463 237.82832564 -107.69517687 233.28080488 -103.125 224.625 C-98.76097968 215.67753934 -98.24143448 207.00052884 -98.0625 197.1875 C-96.80992472 156.57031561 -82.33790947 124.81992767 -54.5 95.5 C-52.65808646 93.50781991 -50.82879708 91.50421893 -49 89.5 C-46.25538145 86.49526736 -43.50422806 83.49844964 -40.71484375 80.53515625 C-27.80010565 66.75928453 -16.82861468 52.04425939 -9.5 34.5 C-9.1803125 33.8503125 -8.860625 33.200625 -8.53125 32.53125 C-5.62934016 26.19003961 -6.03297426 19.34372332 -6.5 12.5 C-6.83 11.84 -7.16 11.18 -7.5 10.5 C-10.9957925 10.21079801 -12.97238713 10.1860418 -16.02734375 12.00390625 C-18.53862987 14.14887835 -21.04232955 16.29359299 -23.5 18.5 C-24.12132812 19.03882813 -24.74265625 19.57765625 -25.3828125 20.1328125 C-33.72312232 27.8524481 -39.5827531 38.30727798 -45.08984375 48.13671875 C-46.5 50.5 -46.5 50.5 -48.5 52.5 C-51.5 52.3125 -51.5 52.3125 -54.5 51.5 C-56.5 48.5 -56.5 48.5 -56.3984375 45.81640625 C-55.2501492 41.57772464 -53.37577211 38.18623351 -51.125 34.4375 C-50.68019287 33.69234131 -50.23538574 32.94718262 -49.77709961 32.17944336 C-39.95813918 16.16083898 -21.47258559 -9.20253668 0 0 Z " fill="#30C6C3" transform="translate(539.5,639.5)" />
        <path d="M0 0 C13.7937397 12.06952224 27.58747941 24.13904447 41.38115797 36.20856671 C41.38115599 36.20856976 41.38115401 36.2085728 41.3811566 36.20857796 C42.92349079 37.55812037 44.46582498 38.90766277 46.00815917 40.25720518 C46.75899933 40.91419001 47.50983949 41.57117483 48.2577977 42.23126786 C48.54920264 42.48842773 48.84060759 42.7455876 49.13201254 43.00274747 C69.04344463 60.5746687 88.95487672 78.14658994 108.86630881 95.71851118 C108.9775392 95.81667232 109.0887696 95.91483346 109.20000001 96.01300267 C110.15830026 96.85891392 111.11660052 97.70482518 112.07490077 98.55073643 C113.7336943 100.01487332 115.39248782 101.47901021 117.05128135 102.94314711 C117.20096237 103.07526367 117.3506434 103.20738023 117.50032442 103.33949679 C122.99920792 108.19307773 128.49809141 113.04665867 133.99697491 117.90023961 C134.16398322 118.04764893 134.33099153 118.19505824 134.4979844 118.34248293 C135.3323267 119.07891292 136.166669 119.81534291 137.0010113 120.5517729 C140.73033235 123.84347712 144.4596534 127.13518134 148.18897446 130.42688556 C148.45922372 130.66542603 148.72947299 130.90396649 148.99971363 131.14251579 C176.666472 155.56839352 204.33323038 179.99427125 232 204.42014898 C227.12656972 207.27237093 222.25313944 210.12459287 217.37973718 212.97677983 C217.08647573 213.14840454 216.79321429 213.32007421 216.5 213.49165393 C212.75625 215.6821875 212.75625 215.6821875 208.5703125 212.0078125 C185.06409618 191.3776363 161.55837672 170.74697722 138.0526786 150.11678225 C137.37511874 149.52211995 136.69755888 149.92745765 136.01999901 149.33279536 C135.00421776 148.44129592 133.98843651 147.54979648 132.97265526 146.65829704 C116.38332151 132.09710352 99.79398777 117.53591001 83.20465403 102.97471649 C82.86143527 102.67349609 82.51821652 102.37227568 82.175 102.07106024 C62.3377708 84.66094269 42.5005416 67.25082514 22.6633124 49.84070759 C22.27708789 49.50174072 21.89086338 49.16277385 21.50462973 48.82381283 C14.33642391 35.85873761 7.16821809 22.89366239 0 9.92858717 Z " fill="#30C6C3" transform="translate(332,608)" />
        <path d="M0 0 C32.58043653 25.4382025 48.74902344 63.26297315 54.02246094 103.96875 C54.33230469 106.35753906 54.64214844 108.74632812 54.95361328 111.13476562 C62.59371948 102.50294711 70.23237568 93.86967859 77.86914062 85.234375 C77.40933594 81.33271484 76.94953125 77.43105469 76.48828125 73.52734375 C72.77189617 41.97232238 64.91230677 17.57022026 42.92382812 -2.28515625 C29.43232297 3.53852579 15.17691515 5.24929737 0 0 Z " fill="#30C6C3" transform="translate(492,290)" />
        <path d="M0 0 C32.58043653 25.4382025 48.74902344 63.26297315 54.02246094 103.96875 C54.33230469 106.35753906 54.64214844 108.74632812 54.95361328 111.13476562 C62.59371948 102.50294711 70.23237568 93.86967859 77.86914062 85.234375 C77.40933594 81.33271484 76.94953125 77.43105469 76.48828125 73.52734375 C72.77189617 41.97232238 64.91230677 17.57022026 42.92382812 -2.28515625 C29.43232297 3.53852579 15.17691515 5.24929737 0 0 Z " fill="#30C6C3" transform="translate(540,412)" />
        <path d="M0 0 C25.95292854 20.25997868 38.83296433 50.39999238 43.03125 82.2578125 C45.33753239 99.76008892 49.62349774 115.42907481 63.921875 126.890625 C67.29656608 129.59587829 71.00693992 131.34185799 74.9609375 133.109375 C82.52922712 121.23348122 89.3623992 108.77709322 95.39453125 95.828125 C95.96875 94.5953125 95.96875 94.5953125 96.5390625 93.359375 C91.07722749 61.35032332 83.21203511 36.93922791 61.22265625 17.0703125 C60.91015625 16.78796875 60.91015625 16.78796875 60.59375 16.5 C38.5607996 4.30594323 18.25770026 -1.2405763 0 0 Z " fill="#30C6C3" transform="translate(540,529.375)" />
        <path d="M0 0 C12.79365287 11.19444626 25.58623652 22.38996172 38.38085938 33.58496094 C38.3808574 33.58496399 38.38085542 33.58496704 38.38085801 33.5849722 C39.5397464 34.59902636 40.698305 35.61340972 41.8568636 36.62779308 C42.14920037 36.88362671 42.44153714 37.13946034 42.73144531 37.39746094 C67.3377708 58.93294269 91.94409635 80.46842444 116.5504219 102.0039062 C116.8920959 102.3029961 117.2337699 102.6020861 117.5754439 102.901176 C134.166669 119.8153429 150.7578942 136.7295098 167.3491193 153.6436767 C168.1834616 154.3737467 169.0178039 155.1038166 169.8521462 155.8338866 C170.0191545 155.9800626 170.1861628 156.1262386 170.3531711 156.2724292 C164.8542876 151.4188482 159.3554041 146.5652673 153.8565206 141.7116864 C153.7061996 141.5790797 153.5565185 141.4469632 153.4068375 141.3148466 C151.748044 139.8507097 150.0892505 138.3865728 148.4304569 136.9224359 C147.4721567 136.0765247 146.5138564 135.2306134 145.5555562 134.3847021 C145.4443258 134.2865329 145.3330954 134.1883718 145.2218649 134.0902026 C125.3104328 116.5182813 105.3989069 98.9463601 85.48747475 81.37443886 C85.1960698 81.11727827 84.90466485 80.86011768 84.61367188 80.60351562 C83.86571367 79.94318434 83.11487351 79.28619952 82.36140393 78.6366571 C80.81906974 77.28711469 79.27673555 75.93757228 77.72944062 74.58803734 C77.72943864 74.58803418 77.72943666 74.58803102 77.72943407 74.58802586 C64.93575551 63.39302664 52.1420158 52.19802741 39.3483323 41.00302819 C26.23351945 29.52550857 13.1187066 11.04798896 0 0 Z " fill="#30C6C3" transform="translate(774,383)" />
        <path d="M0 0 C7.89355716 5.92016787 15.78711432 11.84033574 23.68066406 17.76074219 C23.95304688 17.96507812 24.22542969 18.16941406 24.49853516 18.37280273 C26.60228392 19.93922839 28.70603269 21.50565405 30.80371094 23.08007812 C47.47271923 35.59218942 64.14172753 48.10430073 80.810625 60.61621094 C88.24357989 66.19541492 95.67653478 71.77461889 103.109375 77.35351562 C103.2089453 77.42816406 103.3085156 77.5028125 103.4077148 77.57861328 C104.9928196 78.78917637 106.5779243 79.99973946 108.1629219 81.21044922 C129.7712392 97.7127986 151.3795565 114.215148 172.9877625 130.7176514 C173.2356641 129.5638281 173.4835657 128.4100049 173.7250977 127.2587891 C173.8055469 126.8753125 173.8859961 126.4918359 173.9663086 126.1088867 C174.5739832 123.1977799 175.1816579 120.2866732 175.8095703 117.375 C186.2998633 68.7423378 196.7901563 20.1096756 207.2803955 -28.5234375 C207.3995898 -29.07603516 207.5187842 -29.62863281 207.6375 -30.18164062 C181.7064287 -26.04278146 155.7753574 -21.9039223 129.84375 -17.765625 C129.1729688 -17.65859375 128.5021875 -17.5515625 127.8310547 -17.44482422 C91.73719013 -11.70243174 55.64332559 -5.96003926 19.549375 -0.217773438 C13.03294375 0.818828125 6.5165125 1.85542969 0 2.89191406 Z " fill="#30C6C3" transform="translate(588,320)" />
        <path d="M0 0 C7.89355716 5.92016787 15.78711432 11.84033574 23.68066406 17.76074219 C23.95304688 17.96507812 24.22542969 18.16941406 24.49853516 18.37280273 C26.60228392 19.93922839 28.70603269 21.50565405 30.80371094 23.08007812 C47.47271923 35.59218942 64.14172753 48.10430073 80.810625 60.61621094 C88.24357989 66.19541492 95.67653478 71.77461889 103.109375 77.35351562 C103.2089453 77.42816406 103.3085156 77.5028125 103.4077148 77.57861328 C104.9928196 78.78917637 106.5779243 79.99973946 108.1629219 81.21044922 C129.7712392 97.7127986 151.3795565 114.215148 172.9877625 130.7176514 C173.2356641 129.5638281 173.4835657 128.4100049 173.7250977 127.2587891 C173.8055469 126.8753125 173.8859961 126.4918359 173.9663086 126.1088867 C174.5739832 123.1977799 175.1816579 120.2866732 175.8095703 117.375 C186.2998633 68.7423378 196.7901563 20.1096756 207.2803955 -28.5234375 C207.3995898 -29.07603516 207.5187842 -29.62863281 207.6375 -30.18164062 C181.7064287 -26.04278146 155.7753574 -21.9039223 129.84375 -17.765625 C129.1729688 -17.65859375 128.5021875 -17.5515625 127.8310547 -17.44482422 C91.73719013 -11.70243174 55.64332559 -5.96003926 19.549375 -0.217773438 C13.03294375 0.818828125 6.5165125 1.85542969 0 2.89191406 Z " fill="#30C6C3" transform="translate(684,320)" />
        <path d="M0 0 C7.89355716 5.92016787 15.78711432 11.84033574 23.68066406 17.76074219 C23.95304688 17.96507812 24.22542969 18.16941406 24.49853516 18.37280273 C26.60228392 19.93922839 28.70603269 21.50565405 30.80371094 23.08007812 C47.47271923 35.59218942 64.14172753 48.10430073 80.810625 60.61621094 C88.24357989 66.19541492 95.67653478 71.77461889 103.109375 77.35351562 C103.2089453 77.42816406 103.3085156 77.5028125 103.4077148 77.57861328 C104.9928196 78.78917637 106.5779243 79.99973946 108.1629219 81.21044922 C129.7712392 97.7127986 151.3795565 114.215148 172.9877625 130.7176514 C173.2356641 129.5638281 173.4835657 128.4100049 173.7250977 127.2587891 C173.8055469 126.8753125 173.8859961 126.4918359 173.9663086 126.1088867 C174.5739832 123.1977799 175.1816579 120.2866732 175.8095703 117.375 C186.2998633 68.7423378 196.7901563 20.1096756 207.2803955 -28.5234375 C207.3995898 -29.07603516 207.5187842 -29.62863281 207.6375 -30.18164062 C181.7064287 -26.04278146 155.7753574 -21.9039223 129.84375 -17.765625 C129.1729688 -17.65859375 128.5021875 -17.5515625 127.8310547 -17.44482422 C91.73719013 -11.70243174 55.64332559 -5.96003926 19.549375 -0.217773438 C13.03294375 0.818828125 6.5165125 1.85542969 0 2.89191406 Z " fill="#30C6C3" transform="translate(780,271)" />
        <path d="M0 0 C7.89355716 5.92016787 15.78711432 11.84033574 23.68066406 17.76074219 C23.95304688 17.96507812 24.22542969 18.16941406 24.49853516 18.37280273 C26.60228392 19.93922839 28.70603269 21.50565405 30.80371094 23.08007812 C47.47271923 35.59218942 64.14172753 48.10430073 80.810625 60.61621094 C88.24357989 66.19541492 95.67653478 71.77461889 103.109375 77.35351562 C103.2089453 77.42816406 103.3085156 77.5028125 103.4077148 77.57861328 C104.9928196 78.78917637 106.5779243 79.99973946 108.1629219 81.21044922 C129.7712392 97.7127986 151.3795565 114.215148 172.9877625 130.7176514 C173.2356641 129.5638281 173.4835657 128.4100049 173.7250977 127.2587891 C173.8055469 126.8753125 173.8859961 126.4918359 173.9663086 126.1088867 C174.5739832 123.1977799 175.1816579 120.2866732 175.8095703 117.375 C186.2998633 68.7423378 196.7901563 20.1096756 207.2803955 -28.5234375 C207.3995898 -29.07603516 207.5187842 -29.62863281 207.6375 -30.18164062 C181.7064287 -26.04278146 155.7753574 -21.9039223 129.84375 -17.765625 C129.1729688 -17.65859375 128.5021875 -17.5515625 127.8310547 -17.44482422 C91.73719013 -11.70243174 55.64332559 -5.96003926 19.549375 -0.217773438 C13.03294375 0.818828125 6.5165125 1.85542969 0 2.89191406 Z " fill="#30C6C3" transform="translate(732,203)" />
        <path d="M0 0 C12.79365287 11.19444626 25.58623652 22.38996172 38.38085938 33.58496094 C38.3808574 33.58496399 38.38085542 33.58496704 38.38085801 33.5849722 C39.5397464 34.59902636 40.698305 35.61340972 41.8568636 36.62779308 C42.14920037 36.88362671 42.44153714 37.13946034 42.73144531 37.39746094 C67.3377708 58.93294269 91.94409635 80.46842444 116.5504219 102.0039062 C116.8920959 102.3029961 117.2337699 102.6020861 117.5754439 102.901176 C134.166669 119.8153429 150.7578942 136.7295098 167.3491193 153.6436767 C168.1834616 154.3737467 169.0178039 155.1038166 169.8521462 155.8338866 C170.0191545 155.9800626 170.1861628 156.1262386 170.3531711 156.2724292 C164.8542876 151.4188482 159.3554041 146.5652673 153.8565206 141.7116864 C153.7061996 141.5790797 153.5565185 141.4469632 153.4068375 141.3148466 C151.748044 139.8507097 150.0892505 138.3865728 148.4304569 136.9224359 C147.4721567 136.0765247 146.5138564 135.2306134 145.5555562 134.3847021 C145.4443258 134.2865329 145.3330954 134.1883718 145.2218649 134.0902026 C125.3104328 116.5182813 105.3989069 98.9463601 85.48747475 81.37443886 C85.1960698 81.11727827 84.90466485 80.86011768 84.61367188 80.60351562 C83.86571367 79.94318434 83.11487351 79.28619952 82.36140393 78.6366571 C80.81906974 77.28711469 79.27673555 75.93757228 77.72944062 74.58803734 C77.72943864 74.58803418 77.72943666 74.58803102 77.72943407 74.58802586 C64.93575551 63.39302664 52.1420158 52.19802741 39.3483323 41.00302819 C26.23351945 29.52550857 13.1187066 11.04798896 0 0 Z " fill="#30C6C3" transform="translate(628,172)" />
        <path d="M0 0 C12.79365287 11.19444626 25.58623652 22.38996172 38.38085938 33.58496094 C38.3808574 33.58496399 38.38085542 33.58496704 38.38085801 33.5849722 C39.5397464 34.59902636 40.698305 35.61340972 41.8568636 36.62779308 C42.14920037 36.88362671 42.44153714 37.13946034 42.73144531 37.39746094 C67.3377708 58.93294269 91.94409635 80.46842444 116.5504219 102.0039062 C116.8920959 102.3029961 117.2337699 102.6020861 117.5754439 102.901176 C134.166669 119.8153429 150.7578942 136.7295098 167.3491193 153.6436767 C168.1834616 154.3737467 169.0178039 155.1038166 169.8521462 155.8338866 C170.0191545 155.9800626 170.1861628 156.1262386 170.3531711 156.2724292 C164.8542876 151.4188482 159.3554041 146.5652673 153.8565206 141.7116864 C153.7061996 141.5790797 153.5565185 141.4469632 153.4068375 141.3148466 C151.748044 139.8507097 150.0892505 138.3865728 148.4304569 136.9224359 C147.4721567 136.0765247 146.5138564 135.2306134 145.5555562 134.3847021 C145.4443258 134.2865329 145.3330954 134.1883718 145.2218649 134.0902026 C125.3104328 116.5182813 105.3989069 98.9463601 85.48747475 81.37443886 C85.1960698 81.11727827 84.90466485 80.86011768 84.61367188 80.60351562 C83.86571367 79.94318434 83.11487351 79.28619952 82.36140393 78.6366571 C80.81906974 77.28711469 79.27673555 75.93757228 77.72944062 74.58803734 C77.72943864 74.58803418 77.72943666 74.58803102 77.72943407 74.58802586 C64.93575551 63.39302664 52.1420158 52.19802741 39.3483323 41.00302819 C26.23351945 29.52550857 13.1187066 11.04798896 0 0 Z " fill="#30C6C3" transform="translate(627,83)" />
        <path d="M0 0 L0 120.3125 L34.375 120.3125 L34.375 22.953125 C34.375 22.953125 34.375 22.93382813 34.359375 22.91015625 L34.375 22.91015625 L65.3125 120.3125 L106.5625 120.3125 L137.5 22.91015625 L137.515625 22.91015625 C137.5 22.93382813 137.5 22.953125 137.5 22.953125 L137.5 120.3125 L171.875 120.3125 L171.875 0 L123.75 0 L85.9375 113.6875 L48.125 0 L0 0 Z " fill="#FFFFFF" transform="translate(376,323)" />
        <path d="M0 0 L0 10.3125 C0 10.3125 0.01257812 36.43570313 17.1875 43.3125 L34.375 50.1875 C52.54144531 57.4528125 58.07722656 63.66964844 51.5625 74.15625 C45.04777344 84.64285156 32.79378906 85.99285156 17.1875 79.0625 C1.58121094 72.13214844 0 61.875 0 61.875 L0 51.5625 L-34.375 51.5625 L-34.375 61.875 C-34.375 61.875 -34.79308594 88.08332031 -16.421875 106.453125 C1.94933594 124.8229297 34.375 128.90625 51.5625 128.90625 C68.75 128.90625 97.23722656 117.6599219 116.328125 86.953125 C135.4190234 56.24632813 126.9723047 34.93925781 103.125 25.40625 L85.9375 18.53125 C67.77105469 11.2659375 62.23527344 5.04910156 68.75 -5.4375 C75.26472656 -15.92410156 87.51871094 -17.27410156 103.125 -10.34375 C118.7312891 -3.41339844 120.3125 6.84375 120.3125 6.84375 L120.3125 10.3125 L154.6875 10.3125 L154.6875 6.84375 C154.6875 6.84375 155.1055859 -19.36457031 136.734375 -37.734375 C118.3631641 -56.10417969 85.9375 -60.1875 68.75 -60.1875 C51.5625 -60.1875 23.07527344 -48.94117188 3.984375 -18.234375 C-15.10652344 12.47242188 -6.65980469 33.77949219 17.1875 43.3125 L0 36.4375 L0 0 Z " fill="#FFFFFF" transform="translate(534,323)" />
    
</svg>