<?xml version="1.0" encoding="UTF-8"?>
<svg version="1.1" xmlns="http://www.w3.org/2000/svg" width="1024" height="1024">
<path d="M0 0 C337.92 0 675.84 0 1024 0 C1024 337.92 1024 675.84 1024 1024 C686.08 1024 348.16 1024 0 1024 C0 686.08 0 348.16 0 0 Z " fill="#151D32" transform="translate(0,0)"/>
<path d="M0 0 C1.92223389 -0.00132935 1.92223389 -0.00132935 3.88330078 -0.00268555 C5.26857032 0.01387679 6.65382499 0.03172684 8.0390625 0.05078125 C9.45686839 0.0614551 10.87467438 0.07211583 12.29248047 0.08276367 C23.49861256 0.20321577 34.55097763 0.91890998 45.6640625 2.36328125 C46.52112793 2.47043457 47.37819336 2.57758789 48.26123047 2.68798828 C111.52557549 10.69952838 172.58125999 34.5490821 220.87695312 76.84716797 C222.24596662 78.00858516 223.6402531 79.14026971 225.04492188 80.25830078 C232.02589055 85.82369812 238.4019795 91.79071633 244.68066406 98.11914062 C246.28753557 99.73674412 247.90484744 101.34335038 249.5234375 102.94921875 C256.01508298 109.43213399 261.9729792 116.15486229 267.6640625 123.36328125 C268.71196636 124.64168693 269.76241942 125.91801105 270.81640625 127.19140625 C285.12714704 144.69342723 296.85482589 163.886146 306.64453125 184.25048828 C307.72091035 186.48108807 308.81712311 188.70132149 309.9140625 190.921875 C324.99934126 221.74304496 344.27730613 269.59033047 338.6640625 304.36328125 C336.6640625 306.36328125 336.6640625 306.36328125 333.6640625 306.61328125 C330.6640625 306.36328125 330.6640625 306.36328125 328.6640625 304.36328125 C328.04150391 301.79150391 328.04150391 301.79150391 327.515625 298.52734375 C327.31710937 297.32770996 327.11859375 296.12807617 326.9140625 294.89208984 C326.7078125 293.60383301 326.5015625 292.31557617 326.2890625 290.98828125 C325.84812993 288.32608545 325.40051306 285.66502377 324.953125 283.00390625 C324.84276917 282.34341278 324.73241333 281.68291931 324.61871338 281.00241089 C311.981923 205.59116164 274.02382812 132.69288338 212.6640625 85.36328125 C211.65988281 84.54214844 210.65570312 83.72101563 209.62109375 82.875 C173.78241535 53.67370912 132.10253598 34.34729442 87.6640625 22.36328125 C86.81376465 22.12625488 85.9634668 21.88922852 85.08740234 21.64501953 C68.54947722 17.07236646 51.67340504 15.24608216 34.6640625 13.36328125 C31.6940625 13.03328125 28.7240625 12.70328125 25.6640625 12.36328125 C18.0740625 12.03328125 10.4840625 11.70328125 2.6640625 11.36328125 C2.6640625 223.55328125 2.6640625 435.74328125 2.6640625 654.36328125 C23.22876444 653.73734022 23.22876444 653.73734022 43.6015625 651.80078125 C44.87402832 651.63006104 46.14649414 651.45934082 47.45751953 651.28344727 C80.97625996 646.57716441 115.31379588 637.5511775 145.6640625 622.36328125 C146.59025391 621.90759766 147.51644531 621.45191406 148.47070312 620.98242188 C169.65361277 610.50616522 189.44545496 598.4778423 207.93359375 583.73974609 C209.43674936 582.54409269 210.9553536 581.36791103 212.4765625 580.1953125 C229.71540858 566.79652989 246.44938833 550.73987237 259.6640625 533.36328125 C260.68643661 532.05645904 261.70996962 530.75054303 262.734375 529.4453125 C298.78366484 483.2525348 321.93194654 428.01367243 326.63964844 369.33496094 C326.73407227 368.2318457 326.82849609 367.12873047 326.92578125 365.9921875 C327.03345825 364.53921265 327.03345825 364.53921265 327.14331055 363.05688477 C327.75017482 359.91786295 328.74433471 357.91235308 330.6640625 355.36328125 C333.78402345 354.84328776 335.66288228 354.70509795 338.3515625 356.47265625 C344.35042108 365.11386921 336.96277585 388.2803705 335.23828125 398.09765625 C327.98527442 438.2372029 313.36681627 477.35144336 290.6640625 511.36328125 C290.21611328 512.04342285 289.76816406 512.72356445 289.30664062 513.42431641 C283.29978162 522.51341832 276.90739002 531.25641235 270.02050781 539.69824219 C268.74201111 541.26759919 267.47982299 542.85020178 266.21875 544.43359375 C259.22449462 553.02450942 251.40770145 560.83187576 243.6015625 568.67578125 C242.76961868 569.51562561 242.76961868 569.51562561 241.92086792 570.37243652 C234.84094304 577.50423616 227.60608522 584.17954173 219.6640625 590.36328125 C218.96595459 590.91008545 218.26784668 591.45688965 217.54858398 592.02026367 C175.07830182 624.90238708 128.06096979 646.68845334 75.6640625 658.36328125 C74.80103516 658.56050781 73.93800781 658.75773438 73.04882812 658.9609375 C52.95007369 663.51941789 32.6330683 665.60848885 12.040802 665.83605957 C10.46230789 665.85413865 8.88388103 665.87971654 7.30563354 665.91296387 C5.09099058 665.95438483 2.87903336 665.96117702 0.6640625 665.95703125 C-0.6146875 665.96412109 -1.8934375 665.97121094 -3.2109375 665.97851562 C-6.3359375 665.36328125 -6.3359375 665.36328125 -8.00765479 663.50404608 C-9.9760299 658.84976332 -9.74725914 654.50075934 -9.71346092 649.49580956 C-9.71782124 648.38167761 -9.72218157 647.26754567 -9.72667402 646.11965215 C-9.73768456 642.35962494 -9.72718097 638.59996027 -9.71688843 634.8399353 C-9.7186795 632.12775714 -9.72498219 629.41559366 -9.73107016 626.70342219 C-9.74191977 620.79291633 -9.74156765 614.88249263 -9.73392868 608.97198296 C-9.72260033 600.18309807 -9.72837244 591.39428273 -9.7375536 582.60539834 C-9.75336789 566.91078575 -9.75197496 551.21620974 -9.74331686 535.52159364 C-9.73577776 521.78843587 -9.73379657 508.05529153 -9.7373848 494.32213211 C-9.73761395 493.41208135 -9.73784311 492.50203059 -9.73807921 491.56440253 C-9.73901318 487.87046844 -9.73996838 484.17653436 -9.7409585 480.48260028 C-9.7501402 445.81491597 -9.74180737 411.14725499 -9.72566781 376.47957428 C-9.71142807 345.65824535 -9.71270634 314.8369536 -9.72705078 284.015625 C-9.74310282 249.40935973 -9.74949151 214.80311508 -9.74021399 180.1968466 C-9.73925179 176.51016403 -9.73831328 172.82348144 -9.7373848 169.13679886 C-9.73714756 168.22900376 -9.73691033 167.32120867 -9.73666591 166.38590463 C-9.73324882 152.65771958 -9.73725294 138.92954941 -9.74482346 125.20136642 C-9.75338476 109.59845057 -9.75129191 93.99557711 -9.73498122 78.39266656 C-9.72614705 69.65273836 -9.72563366 60.91290188 -9.73691975 52.17297598 C-9.74361944 46.34352609 -9.73951031 40.51415013 -9.72640544 34.68471124 C-9.7192321 31.35765447 -9.71853257 28.03093202 -9.72762339 24.70385687 C-9.73664821 21.12874834 -9.72748914 17.55415171 -9.71346092 13.97907066 C-9.72048442 12.93432599 -9.72750792 11.88958131 -9.73474425 10.8131777 C-9.7272337 9.86596185 -9.71972314 8.91874599 -9.71198499 7.94282663 C-9.71178171 7.12457911 -9.71157844 6.30633159 -9.711369 5.46328869 C-8.73145771 -0.01792694 -4.83533686 -0.01254083 0 0 Z " fill="#30C5C1" transform="translate(416.3359375,177.63671875)"/>
<path d="M0 0 C4.33532934 2.16766467 4.33532934 2.16766467 6 5 C8.57833538 14.70758804 3.75822604 23.05439092 -0.921875 31.23632812 C-2.76153234 34.24576757 -4.85651351 37.05003464 -7.1640625 39.71484375 C-8.73648233 44.01328113 -6.82924415 48.89600999 -5.1968689 53.03773499 C-4.2795453 55.01229669 -3.30875509 56.94705782 -2.3046875 58.87890625 C-1.95238068 59.57644516 -1.60007385 60.27398407 -1.23709106 60.99266052 C-0.12581612 63.18754951 0.99925641 65.37500296 2.125 67.5625 C2.88764884 69.06267857 3.64937598 70.56332609 4.41015625 72.06445312 C6.26284377 75.71513447 8.1279279 79.3592237 10 83 C13.9074151 83 15.42257753 81.63018781 18.6875 79.5 C37.06395234 67.87031975 57.84114452 59.04612333 79 54 C79.80663086 53.80390137 80.61326172 53.60780273 81.44433594 53.40576172 C118.43533786 44.84082507 158.09514739 50.82033385 195.25 55.5 C196.10603821 55.60777771 196.96207642 55.71555542 197.84405518 55.82659912 C200.39480916 56.14813592 202.94546865 56.47041131 205.49609375 56.79296875 C206.3189386 56.89685913 207.14178345 57.00074951 207.98956299 57.10778809 C211.62871082 57.56831022 215.26653464 58.03538011 218.90283203 58.51806641 C234.73610602 60.6036146 250.35974815 61.30204301 266.3125 61.375 C267.22488434 61.38294586 268.13726868 61.39089172 269.07730103 61.39907837 C287.47208531 61.52263922 309.40376964 60.64664599 324 48 C326.60939443 45.12053126 329.10806842 42.2237955 331.54296875 39.1953125 C334 37 334 37 337.1796875 36.609375 C340 37 340 37 341.9375 38.125 C343 40 343 40 343.125 42.625 C339.51121867 53.46634398 330.04060462 59.52064709 320.4375 64.625 C307.08978478 71.27263598 293.03550954 73.10451865 278.26171875 73.23828125 C277.35615234 73.2480751 276.45058594 73.25786896 275.51757812 73.26795959 C253.47253497 73.45641385 231.99472836 72.55089575 210.14501953 69.67236328 C203.11076282 68.74609764 196.06786078 67.88993081 189.02549744 67.02789307 C183.63509087 66.36804051 178.24555863 65.70301786 172.8581543 65.01904297 C116.08497694 57.85797398 65.13228649 63.6448302 16 95 C16.268125 96.134375 16.53625 97.26875 16.8125 98.4375 C21.47678102 119.7455464 23.94131944 139.64224852 13.0703125 159.76953125 C7.2885845 168.79120872 -0.62134019 175.87550265 -11 179 C-18.23908321 180.25093098 -25.76868856 180.40646507 -32.1875 176.4375 C-38.02030302 171.69556472 -41.67286573 166.48021137 -43 159 C-44.58438187 143.62721376 -39.19960491 131.04146307 -30 119 C-29.22462891 117.98486328 -29.22462891 117.98486328 -28.43359375 116.94921875 C-23.92972273 111.41448897 -18.42954837 107.01733708 -12.9609375 102.4765625 C-12.43064941 102.03610596 -11.90036133 101.59564941 -11.35400391 101.1418457 C-9.81719906 99.86819237 -8.27588633 98.59998422 -6.734375 97.33203125 C-4.36441906 95.3107974 -2.18499696 93.21503629 0 91 C-1.91556774 86.99947284 -3.83265314 82.99967474 -5.75 79 C-6.28882813 77.87464844 -6.82765625 76.74929688 -7.3828125 75.58984375 C-7.91132812 74.48769531 -8.43984375 73.38554688 -8.984375 72.25 C-9.49935547 71.17492187 -10.01433594 70.09984375 -10.54492188 68.9921875 C-11.79012703 66.43157771 -13.07868178 63.90170546 -14.390625 61.375 C-16 58 -16 58 -16 55 C-19.78086704 58.67775249 -23.22850839 62.5302534 -26.625 66.5625 C-52.53546023 96.99573257 -52.53546023 96.99573257 -64.6875 98.4375 C-69.23996334 97.83623126 -71.72921144 96.57467278 -74.6171875 92.99609375 C-76.58903864 88.72374962 -76.44590662 84.90130653 -76.375 80.25 C-76.36847412 79.32203613 -76.36194824 78.39407227 -76.35522461 77.43798828 C-76.21390772 70.03501116 -75.21025028 63.01624422 -73.734375 55.77734375 C-72.78037266 50.87032105 -72.31218027 45.98411948 -72 41 C-87.22164748 51.20306616 -97.27340154 67.72092792 -107.29638672 82.72119141 C-109.59619098 86.12705479 -111.7943857 89.37126517 -115 92 C-118.625 92.375 -118.625 92.375 -122 92 C-124 90 -124 90 -124.29296875 86.13671875 C-124.15386533 80.17667233 -122.73704471 74.57660605 -121.3125 68.8125 C-120.76397787 66.51570738 -120.21580729 64.21883077 -119.66796875 61.921875 C-119.39001465 60.77138672 -119.11206055 59.62089844 -118.82568359 58.43554688 C-117.55603535 53.15272899 -116.33624269 47.85896226 -115.125 42.5625 C-114.80269409 41.17865112 -114.80269409 41.17865112 -114.47387695 39.7668457 C-114.27882568 38.91695068 -114.08377441 38.06705566 -113.8828125 37.19140625 C-113.71152832 36.45092041 -113.54024414 35.71043457 -113.36376953 34.94750977 C-112.90819429 32.83869925 -112.90819429 32.83869925 -113 30 C-126.85101115 41.89804862 -137.40974378 55.24370259 -148 70 C-149.18947587 71.6475892 -150.37957332 73.29472983 -151.5703125 74.94140625 C-153.23690066 77.24630186 -154.9025188 79.55180641 -156.56201172 81.86181641 C-157.54654471 83.23144821 -158.53447439 84.59864606 -159.52612305 85.96313477 C-160.55492141 87.38491127 -161.57106392 88.81589399 -162.57739258 90.25366211 C-163.09454834 90.97690674 -163.6117041 91.70015137 -164.14453125 92.4453125 C-164.83446167 93.42588623 -164.83446167 93.42588623 -165.53833008 94.42626953 C-167 96 -167 96 -170.6875 97.1875 C-174 97 -174 97 -175.71647644 95.74299622 C-177.77475681 92.94789762 -176.97901652 90.79489016 -176.48696899 87.50424194 C-175.6770836 83.33939982 -174.59134944 79.28264096 -173.41796875 75.20703125 C-173.16251785 74.29853928 -172.90706696 73.3900473 -172.64387512 72.45402527 C-171.83170274 69.57159744 -171.00978164 66.6920582 -170.1875 63.8125 C-169.64714106 61.90057291 -169.10742237 59.98846475 -168.56835938 58.07617188 C-167.05484909 52.71478937 -165.5294487 47.35685456 -164 42 C-163.78216858 41.23637146 -163.56433716 40.47274292 -163.33990479 39.68597412 C-162.22853505 35.7900953 -161.11543876 31.89471619 -160 28 C-168.37499281 34.99777741 -175.16898879 42.50939736 -181.25 51.5625 C-181.66233887 52.17544922 -182.07467773 52.78839844 -182.49951172 53.41992188 C-185.03314697 57.28050362 -187.10442333 61.16026707 -188.93798828 65.40161133 C-190 67 -190 67 -193.625 68.125 C-197 68 -197 68 -199 66 C-199.85124871 59.55833907 -197.64957012 55.55735213 -194.5 50.1875 C-194.04222168 49.39069824 -193.58444336 48.59389648 -193.11279297 47.77294922 C-185.854326 35.37717648 -173.76723109 18.85107322 -160 13 C-155.8983325 12.8655191 -154.02512908 13.17855881 -150.83007812 15.73876953 C-147.42584125 19.94501845 -148.46868514 24.85288727 -149 30 C-149.93709906 35.10637264 -151.18389725 40.10449994 -152.5 45.125 C-153.16046783 47.70987984 -153.81414082 50.29643829 -154.46875 52.8828125 C-154.76201172 54.01090332 -155.05527344 55.13899414 -155.35742188 56.30126953 C-156.07720949 58.86190543 -156.07720949 58.86190543 -156 61 C-155.63350342 60.48727539 -155.26700684 59.97455078 -154.8894043 59.44628906 C-147.43808009 49.06487777 -139.92746699 39.15564506 -131 30 C-130.31679688 29.25492187 -129.63359375 28.50984375 -128.9296875 27.7421875 C-123.64924182 22.11968866 -116.79592766 15.45110211 -108.84375 14.703125 C-106 15 -106 15 -103.125 16.75 C-99.01938848 23.02917055 -100.62408016 30.82058866 -102.07962036 37.90362549 C-102.84203759 41.36348197 -103.6650774 44.80704498 -104.5 48.25 C-104.8384554 49.68851657 -105.17570288 51.12731789 -105.51171875 52.56640625 C-106.32728308 56.04765578 -107.15899814 59.52479625 -108 63 C-106.37843571 61.37843571 -105.2139291 59.42459941 -103.91601562 57.54321289 C-95.81718189 45.90190517 -86.9725962 34.4862981 -74 28 C-69.62063431 27.48428319 -66.14953485 27.16658723 -62.5 29.8125 C-57.76379554 36.71946483 -60.14253413 46.29073876 -61.3125 54.06640625 C-61.44567627 54.98590561 -61.57885254 55.90540497 -61.71606445 56.85276794 C-62.13807538 59.75692066 -62.56888196 62.65968676 -63 65.5625 C-63.28964759 67.54483647 -63.57871567 69.52725771 -63.8671875 71.50976562 C-64.57143204 76.34084915 -65.28356169 81.17071037 -66 86 C-64.72888435 85.38799886 -63.46043865 84.77045065 -62.19311523 84.15063477 C-61.48646225 83.80734634 -60.77980927 83.46405792 -60.05174255 83.11036682 C-51.68651698 78.58325453 -44.8711157 69.97656219 -39.0859375 62.625 C-37.09616722 60.12101942 -35.02220393 57.74432847 -32.875 55.375 C-32.23304688 54.63507813 -31.59109375 53.89515625 -30.9296875 53.1328125 C-29 51 -29 51 -26.9453125 49.1796875 C-23.16292883 45.42768442 -21.83216929 42.44027512 -21.70703125 37.1484375 C-21.7302672 34.3676188 -21.81360604 31.59402545 -21.9128418 28.81494141 C-22.23711477 18.57445538 -19.68947509 10.8315806 -13 3 C-9.07120061 -0.29169679 -4.98853386 -0.97242376 0 0 Z " fill="#30C5C2" transform="translate(636,452)"/>
<path d="M0 0 C4.88683155 4.88683155 6.72862483 9.31171174 6.9375 16.25 C5.85865612 43.22109702 -12.33106016 67.08754721 -30.06396484 85.93725586 C-31.70842367 87.72681399 -33.29931959 89.55757168 -34.890625 91.39453125 C-37.76627332 94.69984721 -40.74526796 97.87656416 -43.78857422 101.02709961 C-72.02124536 130.39703469 -84.71800365 160.72783546 -84.75 201.4375 C-84.75067474 202.21112885 -84.75134949 202.98475769 -84.75204468 203.78182983 C-84.72359181 224.3585738 -83.95288095 247.28893353 -69.5 263.5 C-61.63906846 270.6871374 -54.32086032 272.22415126 -43.87890625 271.9453125 C-37.5713439 271.51068524 -32.68869541 268.99409815 -27.5 265.5 C-26.82582031 265.05527344 -26.15164063 264.61054687 -25.45703125 264.15234375 C-13.68721401 255.24053952 -8.50150584 238.6854866 -6.0078125 224.76953125 C-1.73612941 193.10926523 -12.4300216 161.71832776 -31.203125 136.390625 C-33.3798087 133.51544395 -33.3798087 133.51544395 -35.76953125 131.3359375 C-37.5 129.5 -37.5 129.5 -37.9375 125.875 C-37.7209375 124.204375 -37.7209375 124.204375 -37.5 122.5 C-34.5 120.5 -34.5 120.5 -32.125 120.5625 C-28.5655456 121.83373372 -27.0224307 123.67727993 -24.5 126.5 C-23.98695313 127.02207031 -23.47390625 127.54414062 -22.9453125 128.08203125 C-3.03329105 149.14105855 6.91288756 181.6756955 6.875 210.0625 C6.87478851 210.72030457 6.87457703 211.37810913 6.87435913 212.05584717 C6.81086804 231.89455553 2.85556719 249.55109113 -9.5 265.5 C-10.43585938 266.75296875 -10.43585938 266.75296875 -11.390625 268.03125 C-19.50973781 277.53361906 -32.05747115 283.67016391 -44.43359375 284.7578125 C-56.13163898 285.17911065 -67.58895349 282.3954493 -76.5 274.5 C-88.08350356 262.57356377 -91.67831182 249.19331528 -95.5 233.5 C-96.06847656 234.39589844 -96.63695312 235.29179688 -97.22265625 236.21484375 C-103.52661223 245.30854354 -111.73548168 250.94404131 -122.5 253.5 C-138.31534603 255.48578336 -150.64114706 249.81899601 -163.0625 240.59765625 C-172.70823604 232.29675841 -179.56038379 218.75799552 -180.72119141 206.08520508 C-181.20524858 195.37724237 -181.20787193 185.34106562 -176.5 175.5 C-176.07589844 174.58347656 -175.65179688 173.66695312 -175.21484375 172.72265625 C-167.37623077 157.15460318 -154.78980316 147.32580399 -140.875 137.5 C-108.93913153 114.53274838 -87.25140218 75.51360381 -80.921875 36.98046875 C-80.6211344 34.97472299 -80.34002296 32.96580265 -80.08984375 30.953125 C-79.41033652 28.12709494 -78.51129423 26.58828157 -76.5 24.5 C-73.4375 24.125 -73.4375 24.125 -70.5 24.5 C-68.5 26.5 -68.5 26.5 -68.21679688 28.68188477 C-68.22201984 35.89415335 -69.25387832 42.45081065 -71 49.4375 C-71.26772217 50.52289062 -71.53544434 51.60828125 -71.8112793 52.7265625 C-79.56231993 82.87367066 -95.49707482 109.72217974 -116.5 132.5 C-117.16 133.2425 -117.82 133.985 -118.5 134.75 C-123.41268342 140.01358938 -129.19730357 144.17723216 -134.92407227 148.5012207 C-149.26581113 158.97301292 -149.26581113 158.97301292 -160.5 172.5 C-160.95890625 173.21800781 -161.4178125 173.93601562 -161.890625 174.67578125 C-168.40704772 185.51776044 -169.28774688 198.62221154 -166.8125 210.9140625 C-163.433115 221.81257914 -158.3205084 230.42679086 -148.5 236.5 C-140.09938818 240.91570622 -132.13398315 243.02738031 -122.68359375 240.8515625 C-113.3942463 237.82832564 -107.69517687 233.28080488 -103.125 224.625 C-98.76097968 215.67753934 -98.24143448 207.00052884 -98.0625 197.1875 C-96.80992472 156.57031561 -82.33790947 124.81992767 -54.5 95.5 C-52.65808646 93.50781991 -50.82879708 91.50421893 -49 89.5 C-46.25538145 86.49526736 -43.50422806 83.49844964 -40.71484375 80.53515625 C-27.80010565 66.75928453 -16.82861468 52.04425939 -9.5 34.5 C-9.1803125 33.8503125 -8.860625 33.200625 -8.53125 32.53125 C-5.62934016 26.19003961 -6.03297426 19.34372332 -6.5 12.5 C-6.83 11.84 -7.16 11.18 -7.5 10.5 C-10.9957925 10.21079801 -12.97238713 10.1860418 -16.02734375 12.00390625 C-18.53862987 14.14887835 -21.04232955 16.29359299 -23.5 18.5 C-24.12132812 19.03882813 -24.74265625 19.57765625 -25.3828125 20.1328125 C-33.72312232 27.8524481 -39.5827531 38.30727798 -45.08984375 48.13671875 C-46.5 50.5 -46.5 50.5 -48.5 52.5 C-51.5 52.3125 -51.5 52.3125 -54.5 51.5 C-56.5 48.5 -56.5 48.5 -56.3984375 45.81640625 C-55.2501492 41.57772464 -53.37577211 38.18623351 -51.125 34.4375 C-50.68019287 33.69234131 -50.23538574 32.94718262 -49.77709961 32.17944336 C-39.95813918 16.16083898 -21.47258559 -9.20253668 0 0 Z " fill="#30C5C2" transform="translate(384.5,539.5)"/>
<path d="M0 0 C1.1036792 0.00684814 2.2073584 0.01369629 3.34448242 0.02075195 C12.09724948 0.19202266 19.62677143 1.36699155 27.875 4.4375 C29.43347656 4.99824219 29.43347656 4.99824219 31.0234375 5.5703125 C42.53234672 10.03778112 52.53736186 16.41882199 61.875 24.4375 C62.70902344 25.13746094 63.54304688 25.83742188 64.40234375 26.55859375 C70.66331192 31.97061708 75.83113912 37.89121248 80.875 44.4375 C81.58140625 45.33984375 82.2878125 46.2421875 83.015625 47.171875 C88.11837942 53.81646889 92.74290174 60.71200386 97.34716797 67.70629883 C101.87852225 74.54387929 106.72772826 81.05024425 111.875 87.4375 C112.69742188 88.46359375 113.51984375 89.4896875 114.3671875 90.546875 C126.92597462 105.02273554 144.29191926 110.78902974 162.20703125 115.640625 C164.875 116.4375 164.875 116.4375 165.875 117.4375 C166.34103378 122.79688848 166.34103378 122.79688848 164.64453125 125.12890625 C161.62331588 127.36313836 158.96254108 126.57942069 155.37109375 126.140625 C139.12326439 122.87290513 125.51399077 116.09221236 112.875 105.4375 C112.02164063 104.76976562 111.16828125 104.10203125 110.2890625 103.4140625 C98.43183815 93.70572024 90.1388865 79.02579586 81.89868164 66.33007812 C77.30088573 59.31977011 72.29334607 52.8310477 66.875 46.4375 C66.13193604 45.54828857 65.38887207 44.65907715 64.62329102 43.74291992 C51.13513449 27.75982522 29.77095232 14.20148971 8.53173828 12.21875 C-5.8777486 11.49392588 -5.8777486 11.49392588 -19.125 16.4375 C-19.8365625 16.87320312 -20.548125 17.30890625 -21.28125 17.7578125 C-29.95642505 23.68153278 -36.13226974 33.07530263 -38.125 43.4375 C-39.23910726 59.67775584 -36.03651104 75.21962974 -25.9140625 88.29296875 C-23.72548678 90.76165228 -21.45944401 93.1072622 -19.125 95.4375 C-18.58488281 96.04851562 -18.04476562 96.65953125 -17.48828125 97.2890625 C11.74390125 129.54018576 76.3009144 142.71108858 117.2890625 144.75390625 C151.99797403 145.83298756 184.80144904 133.14924379 210.875 110.4375 C211.68324219 109.74011719 212.49148438 109.04273438 213.32421875 108.32421875 C217.09983717 104.99851299 220.73814995 101.6161541 224.1796875 97.9453125 C225.03651123 97.04474121 225.03651123 97.04474121 225.91064453 96.12597656 C227.03445834 94.93718576 228.14296806 93.73369624 229.23388672 92.51464844 C230.796875 90.8671875 230.796875 90.8671875 233.875 88.4375 C238.98291367 88.54541367 238.98291367 88.54541367 240.875 90.4375 C241.44168362 94.94319033 241.28104304 96.87029555 238.6015625 100.61328125 C237.58582981 101.67646715 236.55077328 102.72143174 235.5 103.75 C234.9527124 104.31050049 234.4054248 104.87100098 233.84155273 105.44848633 C232.72486048 106.58787887 231.6007634 107.72006313 230.46923828 108.84472656 C229.05766252 110.25500532 227.68036556 111.69941217 226.30859375 113.1484375 C201.73012655 138.82018084 165.50031501 155.72616367 129.9609375 156.67578125 C113.52814017 156.91332023 97.97597762 156.01492062 81.875 152.4375 C80.80813965 152.20675781 79.7412793 151.97601562 78.64208984 151.73828125 C45.83571525 144.50643428 9.95021753 133.94977703 -17.125 113.4375 C-18.176875 112.66019531 -19.22875 111.88289063 -20.3125 111.08203125 C-35.42985455 99.26195684 -47.7167936 81.8767156 -50.125 62.4375 C-50.36044533 58.89501975 -50.45808867 55.36223448 -50.5 51.8125 C-50.51409912 50.94157715 -50.52819824 50.0706543 -50.54272461 49.17333984 C-50.43712862 35.00743762 -43.95269722 22.70103708 -34.35546875 12.47265625 C-24.11205472 3.12621368 -13.60785428 -0.12953939 0 0 Z " fill="#30C6C3" transform="translate(143.125,396.5625)"/>
<path d="M0 0 C10.90935045 8.34556469 16.51703989 20.41594548 18.625 33.8125 C18.91393835 37.50498743 18.95896382 41.17233491 18.9375 44.875 C18.93012817 46.38791626 18.93012817 46.38791626 18.92260742 47.93139648 C18.36353564 83.96715681 -2.07877041 113.15937081 -25.03613281 139.27197266 C-27.84954237 142.50913792 -30.53658049 145.8501678 -33.234375 149.18359375 C-34.66473604 150.94022327 -36.11287951 152.68251751 -37.578125 154.41015625 C-54.96639768 175.05113029 -67.43110038 197.20200921 -65.375 224.8125 C-63.67804706 237.36995175 -57.86618688 249.32744601 -48.375 257.8125 C-43.17961858 261.62459101 -38.81798543 263.99078592 -32.375 264.8125 C-32.58574463 247.1482685 -34.60283517 229.35218395 -42.359375 213.25 C-43.53556635 210.42714076 -44.05772847 207.84984616 -44.375 204.8125 C-43.3125 202.9375 -43.3125 202.9375 -41.375 201.8125 C-38.5 201.125 -38.5 201.125 -35.375 201.8125 C-23.21894994 216.34046227 -21.04482657 241.23139061 -20.875 259.3125 C-20.85655029 260.48844727 -20.83810059 261.66439453 -20.8190918 262.87597656 C-20.827229 263.9790918 -20.83536621 265.08220703 -20.84375 266.21875 C-20.84826172 267.20166016 -20.85277344 268.18457031 -20.85742188 269.19726562 C-21.51935782 272.54191556 -22.73695359 273.71497806 -25.375 275.8125 C-32.28218819 278.11489606 -38.34702576 276.97078271 -44.8984375 274.0703125 C-60.36775323 266.21365688 -69.40954762 253.90253036 -75.4296875 237.85546875 C-77.52791855 231.10124565 -77.55798644 224.57657593 -77.5625 217.5625 C-77.57474609 216.57636719 -77.58699219 215.59023438 -77.59960938 214.57421875 C-77.65750824 185.27739255 -59.00280593 160.80368798 -40.63671875 139.65234375 C-13.84894422 108.79354723 8.34558835 77.39304355 5.625 34.8125 C4.29899662 24.60119592 0.17967593 16.79999358 -7.375 9.9375 C-15.27734486 4.34000572 -25.08564016 4.96743656 -34.375 5.8125 C-38.36751619 6.65202551 -41.75333459 7.95256976 -45.375 9.8125 C-46.23480469 10.24820313 -47.09460938 10.68390625 -47.98046875 11.1328125 C-61.32049805 18.5192735 -67.6089942 28.79525501 -72.359375 42.8359375 C-74.54596265 50.48784268 -74.57014578 58.65986139 -74.5625 66.56640625 C-74.56169434 67.46782852 -74.56088867 68.36925079 -74.56005859 69.29798889 C-74.47836393 78.5610725 -73.61642015 87.70961218 -72.66464233 96.91717529 C-70.75104337 115.63298367 -69.73681398 133.99864966 -70.375 152.8125 C-70.39723633 153.67536621 -70.41947266 154.53823242 -70.44238281 155.42724609 C-70.79364932 168.12788963 -70.79364932 168.12788963 -74.375 172.8125 C-77.4375 173.25 -77.4375 173.25 -80.375 172.8125 C-82.84343334 170.34406666 -82.62889421 169.64437667 -82.64624023 166.24731445 C-82.65654266 165.29078979 -82.66684509 164.33426514 -82.67745972 163.34875488 C-82.67948395 162.30167358 -82.68150818 161.25459229 -82.68359375 160.17578125 C-82.70675986 157.92227825 -82.73029429 155.66877901 -82.75415039 153.4152832 C-82.76334503 152.22585114 -82.77253967 151.03641907 -82.78201294 149.8109436 C-82.93188409 131.69123601 -83.34475879 113.67845365 -84.9375 95.625 C-89.95225205 37.48707961 -89.95225205 37.48707961 -71.33984375 14.96484375 C-53.05334469 -5.06668902 -24.58946488 -15.92390045 0 0 Z " fill="#30C6C3" transform="translate(374.375,201.1875)"/>
<path d="M0 0 C31.8365735 25.95372839 47.54806951 62.30395207 52.67480469 102.39916992 C55.49821717 124.2801192 60.76388184 144.0285508 78.81542969 158.47729492 C83.07575887 161.50686234 87.74505601 163.70839744 92.46386719 165.93041992 C95.00292969 167.22729492 95.00292969 167.22729492 97.00292969 169.22729492 C96.81542969 172.22729492 96.81542969 172.22729492 96.00292969 175.22729492 C93.00292969 177.22729492 93.00292969 177.22729492 89.70214844 177.03198242 C75.19468217 173.87618722 62.95244056 162.1424834 54.81152344 150.22729492 C45.70824329 135.12725355 42.23853623 119.83432806 40.06542969 102.47729492 C36.37880015 73.06797406 27.21209631 45.54835195 7.00292969 23.22729492 C6.56110352 22.73632324 6.11927734 22.24535156 5.6640625 21.73950195 C-5.99728247 8.94610575 -19.86849942 -1.44572627 -37.74267578 -2.28979492 C-45.85704055 -2.44465557 -52.27601333 -1.71062449 -58.99707031 3.22729492 C-59.7228125 3.75838867 -60.44855469 4.28948242 -61.19628906 4.83666992 C-67.41810742 9.85092649 -72.32067717 16.30252736 -73.99707031 24.22729492 C-74.90108813 33.92114757 -73.17650506 40.25942813 -67.99707031 48.35229492 C-61.87275959 55.16131119 -51.97837456 59.73600135 -43.00097656 60.47338867 C-34.50045876 60.79768588 -28.06616848 59.68602837 -21.49707031 54.10229492 C-17.96650663 49.68909032 -18.40886816 44.66228282 -18.99707031 39.22729492 C-20.79825509 36.22532029 -21.90039763 34.77563126 -24.99707031 33.22729492 C-29.90198634 32.98996028 -32.66074455 32.9891913 -36.99707031 35.22729492 C-40.62207031 35.53979492 -40.62207031 35.53979492 -43.99707031 35.22729492 C-45.99707031 32.22729492 -45.99707031 32.22729492 -46.12207031 29.35229492 C-44.70979339 25.42930346 -43.23451947 24.145645 -39.64160156 22.14526367 C-32.97350796 19.83063738 -24.90872381 19.94076859 -18.43457031 22.85229492 C-12.83113948 26.25266748 -9.55223135 31.25809518 -6.99707031 37.22729492 C-5.91769338 45.32262189 -6.1813028 53.00139933 -10.37988281 60.14135742 C-15.68536917 66.98466591 -23.54186363 70.88295244 -31.99707031 72.22729492 C-42.06471909 72.85523621 -50.76748477 72.77477305 -59.99707031 68.22729492 C-60.76148438 67.87666992 -61.52589844 67.52604492 -62.31347656 67.16479492 C-73.35332184 61.63527242 -80.50347454 53.68513507 -84.99707031 42.22729492 C-88.23510651 32.23335605 -86.19838284 20.58315896 -81.99707031 11.22729492 C-79.63250062 7.27266752 -76.97017944 3.74199508 -73.99707031 0.22729492 C-73.45179688 -0.44172852 -72.90652344 -1.11075195 -72.34472656 -1.80004883 C-52.89760046 -23.52947824 -20.2037923 -15.85225305 0 0 Z " fill="#30C6C3" transform="translate(224.9970703125,319.772705078125)"/>
<path d="M0 0 C0.99 0.28875 1.98 0.5775 3 0.875 C4 3.9375 4 3.9375 4 7.875 C1.8601843 10.86253821 -1.01455531 12.77911368 -4 14.875 C-5.03125 15.61105469 -6.0625 16.34710937 -7.125 17.10546875 C-25.08177399 29.49861215 -45.34507079 33.59669988 -66.6875 36.3125 C-87.48013732 39.00973222 -108.84506586 45.80117396 -122.5546875 62.68359375 C-130.2782955 74.39425345 -133.87589576 85.52424093 -131.5390625 99.6640625 C-128.57444449 110.65058807 -122.62171259 118.80737506 -113 124.875 C-102.77935657 130.05117638 -93.13555059 132.11449088 -81.828125 132.44140625 C-76.20340039 132.67159961 -76.20340039 132.67159961 -74 134.875 C-73.75 137.875 -73.75 137.875 -74 140.875 C-76.96144852 143.83644852 -79.63921748 143.19376579 -83.69433594 143.25537109 C-93.8475238 143.23788204 -102.61143481 143.1137193 -112 138.875 C-112.94746094 138.45089844 -113.89492187 138.02679687 -114.87109375 137.58984375 C-128.31789454 130.89441867 -137.91441881 120.00161442 -143 105.875 C-146.05629714 94.43014261 -145.58779941 79.32319298 -140 68.875 C-139.50242188 67.8953125 -139.00484375 66.915625 -138.4921875 65.90625 C-128.69924772 47.86902139 -111.63560158 35.02261187 -92.15698242 28.79589844 C-82.97138793 26.12769684 -73.5661863 24.82932544 -64.125 23.4375 C-43.36465398 20.36747902 -24.01030498 15.87582436 -7.4375 2.25 C-4.79702853 0.10939507 -3.39710059 -0.45743137 0 0 Z " fill="#30C6C3" transform="translate(276,581.125)"/>
<path d="M0 0 C2.625 1.125 2.625 1.125 4.625 4.125 C4.53324045 7.61759795 3.80516739 8.9271376 1.4375 11.52734375 C0.0453125 12.78224609 0.0453125 12.78224609 -1.375 14.0625 C-12.63665244 24.74861836 -20.26492876 37.78668564 -20.84130859 53.53515625 C-21.00988022 66.8058965 -18.19280156 76.88555288 -9.375 87.125 C-1.68685799 94.42088987 7.05079167 97.83018084 17.5625 97.75 C18.77776367 97.79833984 18.77776367 97.79833984 20.01757812 97.84765625 C35.90862893 97.87178845 50.94547456 89.33881224 64.625 82.125 C86.03237025 70.83595709 109.14342933 61.27023233 133.796875 67.43359375 C136.57882969 68.48574328 138.09240496 69.57067494 139.625 72.125 C139.46349795 75.51654295 139.04203243 76.70796757 136.625 79.125 C133.5703125 79.1015625 133.5703125 79.1015625 129.75 78.75 C128.37648661 78.64215473 127.00278266 78.53671137 125.62890625 78.43359375 C124.94715332 78.38058105 124.26540039 78.32756836 123.56298828 78.27294922 C102.66117929 76.67727068 86.85503926 84.98145136 68.625 94.125 C36.12903169 110.29683023 36.12903169 110.29683023 18.3125 110.3125 C17.59126953 110.32474609 16.87003906 110.33699219 16.12695312 110.34960938 C2.27245484 110.38688605 -8.59528601 104.40601438 -18.5078125 95.12890625 C-28.68926621 84.5796814 -33.34974251 70.19997576 -33.8125 55.75 C-33.28744214 34.28826003 -21.9769216 17.17870289 -7.0625 2.75 C-4.32051851 0.47533774 -3.70916756 0.13737658 0 0 Z " fill="#30C5C2" transform="translate(110.375,502.875)"/>
<path d="M0 0 C1.29647461 -0.0309375 1.29647461 -0.0309375 2.61914062 -0.0625 C8.50847338 -0.09805824 12.82481189 0.77583707 18.1875 3.25 C20.1875 5.25 20.1875 5.25 20.5 7.6875 C20.1875 10.25 20.1875 10.25 18.89453125 11.9296875 C17.1875 13.25 17.1875 13.25 13.5625 12.9375 C12.38107422 12.76734375 12.38107422 12.76734375 11.17578125 12.59375 C-0.40874593 11.26115079 -11.37096058 10.97282989 -21.203125 17.9453125 C-28.83650077 24.18850394 -33.54100437 31.66038271 -35.8125 41.25 C-37.0744893 54.69165345 -34.39775024 65.743289 -25.8125 76.25 C-22.37860685 79.79025267 -18.73073086 83.19609339 -13.8125 84.25 C-9.258556 84.3083839 -5.81941593 83.84986481 -1.875 81.5 C1.17378076 78.17405735 2.07225541 75.66174621 2.4375 71.1875 C2.18647096 68.23790876 1.89790292 66.64456409 0.1875 64.25 C-2.87574282 62.12929343 -6.40691998 61.60995234 -10.0078125 60.91015625 C-11.8125 60.25 -11.8125 60.25 -13.8125 57.25 C-13.625 54.1875 -13.625 54.1875 -12.8125 51.25 C-8.96221065 48.68314044 -6.97874942 49.02740322 -2.515625 49.58203125 C3.30386998 51.02008564 8.26522236 54.51335952 11.6875 59.4375 C15.27690216 66.16762905 15.18051131 73.74525421 13.125 81 C9.24344364 87.51099777 5.0224189 92.85081738 -2.22265625 95.625 C-9.40417529 97.3580966 -17.3670282 97.5981476 -23.8515625 93.69921875 C-35.32950612 85.21651539 -42.58990865 75.89396454 -46.8125 62.25 C-47.3075 60.765 -47.3075 60.765 -47.8125 59.25 C-48.86871206 41.5541192 -46.19914059 28.213318 -34.8125 14.25 C-25.41931826 3.79843158 -13.5958781 0.0800346 0 0 Z " fill="#30C6C3" transform="translate(256.8125,220.75)"/>
<path d="M0 0 C2.15502531 3.23253796 2.46856135 4.25150923 2 8 C0.8125 9.8125 0.8125 9.8125 -1 11 C-5.66406044 11.61017278 -8.95282981 9.78675864 -12.9375 7.625 C-19.72893535 4.00486328 -25.32920282 1.70918787 -33.125 1.625 C-34.92324219 1.58246094 -34.92324219 1.58246094 -36.7578125 1.5390625 C-40.06134269 1.74106284 -40.06134269 1.74106284 -42.3984375 3.81640625 C-44.76671641 7.04535238 -44.53190322 9.07721374 -44 13 C-40.01300213 23.14872185 -30.12665807 27.22177045 -20.6875 31.375 C-4.91285372 38.05704847 11.61920851 42.73662303 28.125 47.23828125 C29.12019653 47.51004936 29.12019653 47.51004936 30.13549805 47.78730774 C33.32763356 48.6563581 36.52218028 49.51174356 39.72265625 50.34985352 C40.86605469 50.65463623 42.00945312 50.95941895 43.1875 51.2734375 C44.69376953 51.66668213 44.69376953 51.66668213 46.23046875 52.06787109 C49.47554383 53.16005169 52.5470996 54.5470996 55 57 C55.3125 59.375 55.3125 59.375 55 62 C53.5 63.875 53.5 63.875 51 65 C45.63635594 64.54734482 40.67113245 63.51767809 35.46875 62.1015625 C34.76764603 61.91104813 34.06654205 61.72053375 33.3441925 61.52424622 C31.06043306 60.89937418 28.77989697 60.26381387 26.5 59.625 C25.71354095 59.40546661 24.92708191 59.18593323 24.11679077 58.95974731 C-39.24275695 41.19310948 -39.24275695 41.19310948 -51.25 25.0625 C-51.72953125 24.43472656 -52.2090625 23.80695313 -52.703125 23.16015625 C-56.66975652 16.55308629 -56.7642334 9.48948736 -56 2 C-53.37561838 -3.65251426 -48.93943037 -7.53028482 -43.375 -10.3125 C-28.49032667 -13.34456309 -12.62682026 -7.99552978 0 0 Z " fill="#31C5C2" transform="translate(187,451)"/>
<path d="M0 0 C2 1 2 1 2.83398438 3.06665039 C4.84642619 10.26733794 5.54343494 16.97297684 5.5 24.4375 C5.49645508 25.53553955 5.49291016 26.6335791 5.48925781 27.76489258 C5.32271143 35.87678744 4.35072002 42.0136264 0 49 C-0.598125 50.093125 -1.19625 51.18625 -1.8125 52.3125 C-6.90448782 58.56837074 -12.79019052 64.03160866 -21.00390625 65.3125 C-26.17661971 65.62659266 -29.1695151 64.38507968 -33 61 C-36.08307347 56.47815891 -36.77564502 52.34236398 -36 47 C-31.06783617 25.23717543 -16.58135294 13.44186884 0 0 Z " fill="#151D30" transform="translate(640,555)"/>
<path d="M0 0 C20.44973304 15.62186901 34.58098303 49.36270076 39 74 C39.30078125 77.43359375 39.30078125 77.43359375 39.3125 80.4375 C39.32925781 81.44683594 39.34601563 82.45617187 39.36328125 83.49609375 C39.24339844 84.32238281 39.12351562 85.14867187 39 86 C36 88 36 88 33.5 87.875 C30.36664301 86.77832505 29.70523378 85.82648338 28 83 C27.26171875 79.92578125 27.26171875 79.92578125 26.6875 76.3125 C22.28564784 51.84470988 9.45270014 28.38556659 -6.890625 9.82421875 C-8.3542354 7.41750728 -8.28590013 5.76823932 -8 3 C-5.82593068 -0.31831633 -3.80101499 -0.45544706 0 0 Z " fill="#30C6C3" transform="translate(350,367)"/>
<path d="M0 0 C2 2 2 2 2.125 5.625 C2.08375 6.73875 2.0425 7.8525 2 9 C-1.78619017 10.69170199 -5.45622787 12.15129563 -9.4375 13.3125 C-15.66949041 15.35438082 -20.17236104 18.89118581 -24.4375 23.8125 C-26.42246728 27.86183324 -27.3518913 31.47690939 -27 36 C-25.62283334 38.71107713 -25.62283334 38.71107713 -23 40 C-18.90835063 40.7115912 -17.40927919 40.275637 -13.9375 37.9375 C-11 36 -11 36 -8.25 36.125 C-6 37 -6 37 -4 39 C-3.5 41.8125 -3.5 41.8125 -4 45 C-9.1653204 50.1653204 -13.12590574 52.29051172 -20.375 52.375 C-25.785771 52.27816294 -28.94975058 51.84773695 -33 48 C-38.36038965 42.37526237 -39.49079758 37.9183693 -39.3984375 30.26171875 C-38.20537298 20.4949651 -31.23705115 13.12745217 -24 7 C-16.62449334 1.31905419 -9.24463889 -0.6375613 0 0 Z " fill="#30C7C4" transform="translate(217,642)"/>
<path d="M0 0 C3.82849963 2.87137472 6.18073271 5.77513296 7.75 10.390625 C7.6875 13.265625 7.6875 13.265625 6.125 15.703125 C3.6875 17.265625 3.6875 17.265625 0.75 17.390625 C-3.41641252 15.86010612 -4.66711383 13.79280657 -7.3125 10.265625 C-10.38444908 8.72965046 -12.91494293 9.0391212 -16.3125 9.265625 C-21.68209112 11.12854437 -25.31093518 14.51524931 -28.3125 19.265625 C-31.25806684 25.65469974 -31.77289371 31.15849949 -31.875 38.140625 C-31.90934748 40.01319882 -31.95190162 41.88564584 -32.00390625 43.7578125 C-32.01623291 44.57620605 -32.02855957 45.39459961 -32.04125977 46.23779297 C-32.3125 48.265625 -32.3125 48.265625 -34.3125 50.265625 C-37.25 50.640625 -37.25 50.640625 -40.3125 50.265625 C-45.01912833 45.38201417 -43.83672192 39.11532647 -43.79077148 32.76074219 C-43.48648918 20.82035224 -39.89761657 12.94391555 -31.58984375 4.33203125 C-23.12500391 -3.34875824 -10.23070471 -6.05316695 0 0 Z " fill="#30C6C3" transform="translate(356.3125,736.734375)"/>
<path d="M0 0 C6.01608836 2.90061403 10.01211733 7.69868006 12.45703125 13.92578125 C14.5924617 22.08343283 12.99615503 29.72749427 9 37 C5.49939118 42.40626569 1.20058182 46.06810231 -5 48 C-7.86814163 48.39891407 -10.07397774 48.30269196 -13 48 C-15 46 -15 46 -15.4375 42.5625 C-15 39 -15 39 -12.9375 37.25 C-10.80145483 36.34104461 -8.62797115 35.51858637 -6.4375 34.75 C-2.16220808 32.57348775 -0.50584389 30.50856833 1 26 C1.65319516 22.08825169 1.29637138 18.81937969 -0.0625 15.0625 C-2.86852351 12.07544271 -4.96490047 12.13450332 -9 12 C-10.2375 12.20625 -11.475 12.4125 -12.75 12.625 C-16 13 -16 13 -17.9375 11.875 C-19.4037285 9.28753795 -19.57165519 7.92973283 -19 5 C-13.09006366 -0.59888706 -7.89837215 -0.74434921 0 0 Z " fill="#30C7C4" transform="translate(338,240)"/>
<path d="M0 0 C4.80506916 2.56822662 8.44530383 6.57810767 10.875 11.4375 C11.13360135 15.48892119 11.17941554 16.98087669 8.875 20.4375 C5.4375 20.875 5.4375 20.875 1.875 20.4375 C0.125 18.75 0.125 18.75 -1.125 16.4375 C-3.0110153 12.8020184 -3.0110153 12.8020184 -6.125 10.4375 C-8.05960941 10.3146223 -9.99902904 10.26195112 -11.9375 10.25 C-13.49404297 10.22873047 -13.49404297 10.22873047 -15.08203125 10.20703125 C-18.32493483 10.45264269 -20.36249962 10.70121015 -23.125 12.4375 C-24.3124326 15.44953333 -24.3124326 15.44953333 -24.8125 18.9375 C-25.95360999 25.26610999 -25.95360999 25.26610999 -28.125 27.4375 C-31.0625 27.8125 -31.0625 27.8125 -34.125 27.4375 C-36.7607086 25.24107616 -37.08453492 23.69040678 -37.625 20.3125 C-36.53669925 11.87816915 -32.44859475 6.05331278 -25.9921875 0.71484375 C-19.62529942 -3.64074705 -7.00326341 -2.80610212 0 0 Z " fill="#30C6C3" transform="translate(156.125,549.5625)"/>
<path d="M0 0 C2.9375 0.875 2.9375 0.875 4.9375 3.875 C5.18821444 6.63285884 5.31842638 9.24186175 5.3125 12 C5.31008301 13.14807129 5.31008301 13.14807129 5.30761719 14.31933594 C5.179246 20.24203031 4.2198655 24.84887782 0.9375 29.875 C0.36 30.803125 -0.2175 31.73125 -0.8125 32.6875 C-7.20641799 38.90380916 -13.3470889 39.31795012 -22.0859375 39.30859375 C-23.06820312 39.16550781 -24.05046875 39.02242187 -25.0625 38.875 C-27.36413882 35.42254176 -27.40740322 33.92761287 -27.0625 29.875 C-23.8416936 26.6541936 -19.62934517 27.09992488 -15.2265625 26.6328125 C-11.60801567 25.7661482 -10.323852 24.77939048 -8.0625 21.875 C-6.62904634 17.57463902 -6.74493439 13.18058038 -6.6328125 8.6796875 C-6.39790556 3.37470567 -6.39790556 3.37470567 -4.71484375 0.8671875 C-3.0625 -0.125 -3.0625 -0.125 0 0 Z " fill="#30C5C2" transform="translate(265.0625,713.125)"/>
<path d="M0 0 C0.53625 0.268125 1.0725 0.53625 1.625 0.8125 C0.201875 1.43125 0.201875 1.43125 -1.25 2.0625 C-4.59127055 3.93361151 -5.02379634 4.43449086 -6.375 7.8125 C-7.3959375 9.1428125 -7.3959375 9.1428125 -8.4375 10.5 C-10.85381005 14.63111073 -11.16575712 18.10453528 -11.375 22.8125 C-11.705 22.8125 -12.035 22.8125 -12.375 22.8125 C-12.99734043 12.12898936 -12.99734043 12.12898936 -10.75 7.375 C-3.64772727 -0.28797847 -3.64772727 -0.28797847 0 0 Z " fill="#32D9D3" transform="translate(143.375,442.1875)"/>
<path d="M0 0 C1.56902561 3.13805122 0.56136446 6.26618588 0.0625 9.625 C-0.08735352 10.68460938 -0.08735352 10.68460938 -0.24023438 11.765625 C-0.48791959 13.51121607 -0.74323871 15.25572084 -1 17 C0.98 15.68 2.96 14.36 5 13 C5.66 13.33 6.32 13.66 7 14 C3.71195019 16.91227269 1.40114397 18.49701212 -3 19 C-3.23063489 12.77285803 -2.61194704 7.03597685 -1 1 C-0.67 0.67 -0.34 0.34 0 0 Z " fill="#121823" transform="translate(573,519)"/>
<path d="M0 0 C1.53515625 1.8515625 1.53515625 1.8515625 3 4 C2.00705598 8.1924303 -0.55857828 11.50062887 -3 15 C-4.57156655 11.8568669 -3.11705576 9.634536 -2.0625 6.375 C-1.68222656 5.18648438 -1.30195313 3.99796875 -0.91015625 2.7734375 C-0.60980469 1.85820312 -0.30945313 0.94296875 0 0 Z " fill="#121B25" transform="translate(482,501)"/>
<path d="M0 0 C0.33 0 0.66 0 1 0 C1 2.64 1 5.28 1 8 C0.34 7.34 -0.32 6.68 -1 6 C-3.64 8.64 -6.28 11.28 -9 14 C-9.66 13.67 -10.32 13.34 -11 13 C-10.45730469 12.48050781 -9.91460937 11.96101562 -9.35546875 11.42578125 C-5.66548263 7.82887586 -2.44046993 4.59382574 0 0 Z " fill="#12121E" transform="translate(289,772)"/>
<path d="M0 0 C0.66 0.33 1.32 0.66 2 1 C-5.11389522 9.6309795 -5.11389522 9.6309795 -10 12 C-9.49452628 7.91944849 -7.49911118 6.33727705 -4.4375 3.75 C-3.61121094 3.04359375 -2.78492188 2.3371875 -1.93359375 1.609375 C-1.29550781 1.07828125 -0.65742188 0.5471875 0 0 Z " fill="#32D0CC" transform="translate(157,624)"/>
<path d="M0 0 C3.63 0 7.26 0 11 0 C11 0.66 11 1.32 11 2 C11.99 2.33 12.98 2.66 14 3 C9.71 3 5.42 3 1 3 C0.67 2.01 0.34 1.02 0 0 Z " fill="#2EBBB9" transform="translate(877,522)"/>
<path d="M0 0 C0.33 0.66 0.66 1.32 1 2 C0.00390625 4.6015625 0.00390625 4.6015625 -1.4375 7.625 C-1.91058594 8.62789063 -2.38367188 9.63078125 -2.87109375 10.6640625 C-3.24363281 11.43492187 -3.61617187 12.20578125 -4 13 C-4.86443295 10.5653629 -5.12994709 9.36863937 -4.2578125 6.89453125 C-3.88398437 6.20746094 -3.51015625 5.52039063 -3.125 4.8125 C-2.57199219 3.77029297 -2.57199219 3.77029297 -2.0078125 2.70703125 C-1 1 -1 1 0 0 Z " fill="#111B22" transform="translate(630,465)"/>
<path d="M0 0 C-0.33 0.99 -0.66 1.98 -1 3 C-4.3 2.67 -7.6 2.34 -11 2 C-11 1.67 -11 1.34 -11 1 C-7.27569643 0.30710631 -3.78916254 -0.11144596 0 0 Z " fill="#162B37" transform="translate(216,616)"/>
<path d="M0 0 C0.66 0 1.32 0 2 0 C2 3.3 2 6.6 2 10 C1.01 9.34 0.02 8.68 -1 8 C-1.25 4.4375 -1.25 4.4375 -1 1 C-0.67 0.67 -0.34 0.34 0 0 Z " fill="#2EB8B5" transform="translate(290,287)"/>
<path d="M0 0 C0.66 1.32 1.32 2.64 2 4 C0.6875 6.625 0.6875 6.625 -1 9 C-1.33 9.66 -1.66 10.32 -2 11 C-2.66 10.67 -3.32 10.34 -4 10 C-2.68 6.7 -1.36 3.4 0 0 Z " fill="#32D5D0" transform="translate(644,593)"/>
<path d="M0 0 C0.33 0.66 0.66 1.32 1 2 C1.99 2.33 2.98 2.66 4 3 C2.02 5.97 2.02 5.97 0 9 C-0.66 8.67 -1.32 8.34 -2 8 C-1.34 5.36 -0.68 2.72 0 0 Z " fill="#162D36" transform="translate(529,507)"/>
<path d="M0 0 C0.99 0 1.98 0 3 0 C3.125 3.375 3.125 3.375 3 7 C2.34 7.66 1.68 8.32 1 9 C-0.4783226 6.04335481 -0.06032783 3.25770263 0 0 Z " fill="#2DB7B5" transform="translate(390,235)"/>
<path d="M0 0 C0.33 0.66 0.66 1.32 1 2 C-0.32 2.33 -1.64 2.66 -3 3 C-3 3.66 -3 4.32 -3 5 C-4.65 5.33 -6.3 5.66 -8 6 C-8 5.34 -8 4.68 -8 4 C-5.36 2.68 -2.72 1.36 0 0 Z " fill="#121623" transform="translate(589,799)"/>
<path d="M0 0 C0.66 0.33 1.32 0.66 2 1 C2.4140625 3.06640625 2.4140625 3.06640625 2.625 5.5625 C2.69976563 6.38878906 2.77453125 7.21507812 2.8515625 8.06640625 C2.92503906 9.02353516 2.92503906 9.02353516 3 10 C1.50002556 7.05047042 0.19976433 4.08510827 -1 1 C-0.67 0.67 -0.34 0.34 0 0 Z " fill="#12111C" transform="translate(640,555)"/>
<path d="M0 0 C2 2 2 2 2.1953125 3.9453125 C2.13020833 5.96354167 2.06510417 7.98177083 2 10 C1.01 9.34 0.02 8.68 -1 8 C-1.25660094 4.92078868 -1.39431504 2.78863007 0 0 Z " fill="#2EB7B5" transform="translate(292,310)"/>
<path d="M0 0 C0.99 0 1.98 0 3 0 C3 2.64 3 5.28 3 8 C2.01 7.67 1.02 7.34 0 7 C0 4.69 0 2.38 0 0 Z " fill="#2FB6B6" transform="translate(298,289)"/>
<path d="M0 0 C0.99 0.33 1.98 0.66 3 1 C2.67 3.64 2.34 6.28 2 9 C0 7 0 7 -0.125 3.375 C-0.08375 2.26125 -0.0425 1.1475 0 0 Z " fill="#2CB5B3" transform="translate(593,598)"/>
<path d="M0 0 C0.33 1.32 0.66 2.64 1 4 C-0.9375 6.25 -0.9375 6.25 -3 8 C-3.66 7.67 -4.32 7.34 -5 7 C-3.35 4.69 -1.7 2.38 0 0 Z " fill="#121421" transform="translate(375,599)"/>
<path d="M0 0 C1.1875 1.625 1.1875 1.625 2 4 C0.625 7.25 0.625 7.25 -1 10 C-1.33 10 -1.66 10 -2 10 C-1.85950482 8.52031676 -1.71245174 7.04125484 -1.5625 5.5625 C-1.48128906 4.73878906 -1.40007812 3.91507812 -1.31640625 3.06640625 C-1 1 -1 1 0 0 Z " fill="#31D0CC" transform="translate(473,493)"/>
<path d="M0 0 C0.33 0 0.66 0 1 0 C1.33 3.96 1.66 7.92 2 12 C1.01 12.495 1.01 12.495 0 13 C-0.99 12.34 -1.98 11.68 -3 11 C-2.01 11 -1.02 11 0 11 C0 7.37 0 3.74 0 0 Z " fill="#2CAEAE" transform="translate(342,455)"/>
<path d="M0 0 C0.99 0.33 1.98 0.66 3 1 C3.125 3.875 3.125 3.875 3 7 C2.34 7.66 1.68 8.32 1 9 C-0.4783226 6.04335481 -0.06032783 3.25770263 0 0 Z " fill="#2EB5B3" transform="translate(300,309)"/>
<path d="M0 0 C0.99 0.33 1.98 0.66 3 1 C3 2.98 3 4.96 3 7 C2.01 7 1.02 7 0 7 C0 4.69 0 2.38 0 0 Z " fill="#2DB5B3" transform="translate(299,298)"/>
</svg>
